<?xml version="1.0" standalone="no"?><!DOCTYPE svg PUBLIC "-//W3C//DTD SVG 1.1//EN" "http://www.w3.org/Graphics/SVG/1.1/DTD/svg11.dtd"><svg t="1744452156444" class="icon" viewBox="0 0 1026 1024" version="1.1" xmlns="http://www.w3.org/2000/svg" p-id="5442" xmlns:xlink="http://www.w3.org/1999/xlink" width="200.390625" height="200"><path d="M509.796601 2.977443C229.584998 2.977443 2.941033 230.548509 2.941033 511.242599c0.184432 277.688835 228.536041 505.111697 506.81934 504.88939 279.134651-0.334283 506.595387-227.905349 506.262751-506.522931C1015.726715 230.250453 788.450411 2.977443 509.796601 2.977443z m0 978.703623C249.222074 981.272681 36.72339 769.220256 37.16965 510.205168c0.592817-261.243093 212.424582-473.14896 472.738928-472.887132s471.960032 212.683116 471.736078 472.442519S768.923665 982.087804 509.944805 981.679419h-0.148204z" fill="#7C0000" p-id="5443"></path><path d="M377.56045 96.827021c6.608267-3.713342 12.956353-8.019502 15.110257-16.001129 0.296409-1.151054 0.704794-2.190131 2.226358-1.92995a4.344034 4.344034 0 0 1 3.713343 3.711696 18.561771 18.561771 0 0 1-5.717395 17.003978q-12.399764 11.024757-24.909857 21.680649a9.31876 9.31876 0 0 0-3.713342 5.419339c-1.37336 7.611116-2.820823 15.220586-4.418136 23.796678 4.974726-3.711695 9.206783-6.682369 8.539864-13.400966a29.179789 29.179789 0 0 1 3.006901-14.331361 5.383111 5.383111 0 0 1 8.278036-2.931152c6.385961 2.85705 9.541066 13.363092 4.752419 18.932282a26.24699 26.24699 0 0 0-5.56919 19.973005c0.372158 9.392862 0 18.784077 0 28.623199a95.148836 95.148836 0 0 1-10.766222-6.756471c-4.157955-3.379059-6.458416-2.37621-8.241808 2.190131a19.600848 19.600848 0 0 1-1.781746 2.894925c-4.528466 7.426684-4.380262 7.426684-10.319962 1.114826-2.524414-2.674265-3.006901-4.157955 0.704794-6.12578a58.099397 58.099397 0 0 0 13.921328-10.654245 14.033305 14.033305 0 0 0 4.56634-14.07118c-1.92995 0-3.006901 1.707643-4.268285 2.858697-6.237756 5.457213-6.12578 5.383111-12.585842 0a3.711695 3.711695 0 0 1-1.261384-5.234906c2.746721-7.05288 5.085056-14.255611 7.871298-21.308492 1.03743-2.710493 0.480841-3.971876-2.041927-5.234907a15.182712 15.182712 0 0 1-9.356634-8.984476c12.251559 0.742668 17.782875-6.348086 21.38424-16.259664s7.721446-19.750699 10.542269-29.958685c0.296409-0.966622-0.334283-2.524414 1.300905-2.748367a3.118878 3.118878 0 0 1 3.117231 2.079801 15.554869 15.554869 0 0 1 0.854645 12.658298c-1.523211 4.232057-3.304957 8.612319-4.938498 12.992581z" fill="#7B0303" p-id="5444"></path><path d="M372.957882 908.807342c5.531316-13.662794 10.728348-26.396841 15.777176-39.167115 1.187281-2.969027 1.92995-4.750773 5.939701-3.117231s3.118878 3.711695 1.967824 6.422188c-6.570393 16.111459-13.06833 32.260793-19.712824 48.261922-0.668566 1.595667-0.334283 5.085056-3.304957 4.194183s-6.644495-1.076952-7.423391-5.643292c-3.379059-17.298741-7.090755-34.487151-10.654246-51.713436-2.041927 0-1.70929 1.671416-2.153903 2.74672-4.900624 12.103355-9.839122 24.168835-14.627769 36.308418-1.076952 2.746721-2.078154 3.935649-5.309009 2.300461-2.672618-1.335486-4.232057-1.855848-2.708846-5.493441 6.904676-16.409514 13.400966-32.929359 20.195312-49.375101 0.668566-1.559439 0.408385-5.086702 3.229208-4.083853s6.646142 0.890873 7.426684 5.605417c3.191334 16.92823 6.866801 33.746129 10.356191 50.600257a19.414769 19.414769 0 0 0 1.002849 2.153903z m252.556672 6.273984c-3.491036-14.107407-6.720244-28.06661-10.469814-41.875961-0.928747-3.342831 0.184432-4.009751 2.708846-4.604215s4.604215-1.707643 5.56919 2.190131c4.380262 18.229134 8.984477 36.38252 13.512943 54.572134 0.260181 1.188928 1.002849 2.748367-1.039077 3.156752-2.970674 0.55659-5.829371 2.858697-8.946602 0-6.497937-6.087905-13.142432-12.029253-19.712825-18.005181l-20.863878-18.859826c3.711695 14.850075 6.792699 28.214814 10.357837 41.50545 0.964975 3.711695 0.852998 5.085056-3.194627 6.310212-4.787 1.449109-4.490592-1.817973-5.121284-4.268286-4.157955-16.519844-8.353785-33.003461-12.251559-49.561179-0.482487-1.967824-3.155106-4.824875 0.186079-6.310212s6.310212-2.710493 9.763373 0.55659c11.136733 10.690473 22.867931 21.012083 34.376821 31.444021a12.770274 12.770274 0 0 0 5.12293 3.74957zM195.465065 791.161086c11.545119-10.061428 22.275113-19.156235 32.631303-28.400892 2.190131-1.92995 3.379059-3.229208 6.12578 0s1.707643 4.492238-0.741022 6.608267c-13.216534 11.360686-26.322738 22.867931-39.575501 34.190742-1.37336 1.188928-2.858697 4.344034-4.824874 2.414084s-5.56919-3.713342-4.232058-8.353785c3.934002-13.437194 7.423391-27.025886 11.136733-40.538828 0.964975-3.713342 1.893722-7.238959 3.155106-12.139583-11.396914 9.87535-21.828853 18.896054-32.18669 27.954633-2.190131 1.92995-3.713342 3.971876-6.646142 0.408385s-1.521565-4.418136 0.928748-6.534165c13.104558-11.136733 25.986809-22.645624 39.165468-33.782357 1.37336-1.188928 2.524414-5.0126 5.12293-2.674265s5.56919 4.157955 4.121728 8.948249c-4.566341 15.405018-8.576091 30.997762-12.770275 46.516404-0.408385 1.261384-0.890873 2.672618-1.411234 5.383111z" fill="#7B0304" p-id="5445"></path><path d="M432.504741 875.98996c13.104558 0 24.018984 7.423391 26.729477 18.263716 1.151054 4.640443-0.372158 6.089552-4.900623 5.939701-2.302107 0-2.820823-1.001203-3.118878-2.969027-1.335486-8.129832-7.090755-11.731197-14.477918-13.06833-8.353785-1.48369-16.001129 0-21.198162 7.426684a31.778305 31.778305 0 0 0-5.010953 25.428572c2.264233 10.80245 14.477918 17.596796 26.765704 15.294689 9.280885-1.707643 9.76502-2.338335 10.840325-10.097656 0.408385-2.858697 0-4.194183-3.118878-4.566341-3.711695-0.444613-7.425038-1.299258-11.136733-1.855848-2.37621-0.334283-3.415287-1.299258-2.524414-3.711695 0.668566-1.893722 0-4.826522 3.711695-4.083853q10.283735 2.004052 20.715674 3.711695c2.264233 0.372158 2.822469 1.337133 2.450312 3.453162a719.120418 719.120418 0 0 0-3.267082 17.856977 4.714545 4.714545 0 0 1-3.118879 3.711695 38.831185 38.831185 0 0 1-23.684701 3.897774c-13.066683-2.300461-23.350418-8.724296-26.357319-22.273466a35.527875 35.527875 0 0 1 11.805299-36.418748 26.172887 26.172887 0 0 1 18.896054-5.939701z" fill="#7A0304" p-id="5446"></path><path d="M750.139588 797.062913c2.190131 0.890873 2.858697 3.006901 4.045979 4.640442s-0.668566 2.302107-1.597314 2.970674c-8.091957 5.977575-16.147687 11.955151-24.353267 17.707126-2.190131 1.523211-2.48654 2.414084-0.852999 4.752419 8.798398 12.659945 8.686421 12.696172 21.198162 3.379059 3.971876-2.970674 7.981627-5.791496 11.917276-8.724295 1.92995-1.449109 3.415287-3.415287 5.67952 0 1.817973 2.746721 2.226359 4.083853-0.854645 6.125779-7.05288 4.750773-13.773124 10.023554-20.789776 14.848429-3.043129 2.079801-3.415287 3.713342-0.889227 6.534165 3.451515 3.935649 5.455567 11.136733 9.799601 11.620867s8.278036-5.088349 12.399764-8.057376c5.085056-3.711695 10.283735-7.126982 15.072382-11.136733 2.820823-2.338335 3.711695-0.592817 5.234906 1.225156s2.264233 3.30331-0.482487 5.234907c-10.840325 7.60947-21.532445 15.442893-32.150463 23.350418-2.152256 1.597314-3.267082 1.671416-4.936851-0.592818q-16.37164-22.831703-33.041336-45.515201c-1.261384-1.707643-1.447462-2.598516 0.520362-3.971876 10.618018-7.611116 21.160287-15.332563 31.704203-23.017782 0.778896-0.444613 1.597314-1.001203 2.37621-1.37336z" fill="#7B0405" p-id="5447"></path><path d="M872.982876 746.018043c0 15.330916-16.001129 30.292968-29.70015 27.694452a21.792626 21.792626 0 0 1-4.86275-1.523212c-1.37336-0.66692-3.711695-1.37336-2.004052-3.525616s0.741022-5.495088 5.085056-4.456011a18.561771 18.561771 0 0 0 23.31419-16.705923 9.094807 9.094807 0 0 0-3.711695-9.42909 8.129832 8.129832 0 0 0-10.023554 0.668566c-3.713342 2.782948-7.238959 6.087905-10.914427 9.094807a69.013824 69.013824 0 0 1-8.538217 6.497937 13.810998 13.810998 0 0 1-16.483616-0.482487 15.442893 15.442893 0 0 1-6.496291-16.373287 31.257943 31.257943 0 0 1 13.99543-20.529595 15.554869 15.554869 0 0 1 13.587046-2.152257c2.004052 0.630692 6.237756 0 4.974725 4.120081-0.890873 2.858697-2.190131 6.422188-7.202731 4.269932s-9.243011 0.852998-12.287787 4.752419c-3.711695 4.640443-7.425038 9.725498-4.492238 15.999483a6.460063 6.460063 0 0 0 9.468611 3.267082 51.751311 51.751311 0 0 0 10.690473-8.390012c2.746721-2.302107 5.345237-4.824875 8.203934-6.942551a15.927027 15.927027 0 0 1 18.08093-2.190131 16.780025 16.780025 0 0 1 9.317113 16.335413z" fill="#7A0405" p-id="5448"></path><path d="M80.270767 594.846317c0-10.616371 3.711695-17.372843 12.027606-21.567026 1.37336-0.706441 3.711695-2.784595 4.528466 0.370511 0.484134 2.153903 4.269932 5.12293-0.370511 7.05288-11.879402 4.938498-8.8725 23.202214-2.562288 29.700151a8.612319 8.612319 0 0 0 8.798398 2.562288 8.129832 8.129832 0 0 0 6.015449-6.868448 83.826025 83.826025 0 0 0 0.927101-15.852924 28.99371 28.99371 0 0 1 2.524414-13.809352 15.146484 15.146484 0 0 1 24.020631-4.30616A30.404945 30.404945 0 0 1 143.231266 602.56941a14.850075 14.850075 0 0 1-7.425037 8.353785c-1.633541 0.778896-3.711695 4.083853-5.531316 0.852998-1.26303-2.412437-4.083853-5.345237 1.113179-8.241808 8.019502-4.492238 6.385961-22.273466-1.92995-26.209115-5.0126-2.450312-9.653043 0.186079-10.728347 6.162007-1.26303 7.128629-0.296409 14.367588-1.00285 21.532445-1.411235 13.735249-14.069533 20.715674-25.504321 14.145281a21.754751 21.754751 0 0 1-7.611116-8.279682 35.93626 35.93626 0 0 1-4.342388-16.039004z" fill="#7C0303" p-id="5449"></path><path d="M154.14734 629.372989c0 1.92995-1.669769 1.81962-2.746721 2.264233a759.461641 759.461641 0 0 1-16.854127 6.794346c-2.338335 0.890873-3.713342 1.633541-2.414084 4.824875 3.342831 7.426684 6.311858 15.036154 9.170555 22.647271 1.075305 2.969027 2.412437 3.118878 5.048828 1.967824 5.531316-2.450312 11.136733-4.418136 16.780025-6.94255 3.711695-1.707643 3.971876 0.928747 4.900624 3.155106s1.855848 3.713342-1.523211 5.086702q-25.985162 10.133884-51.639334 20.863879c-4.380262 1.855848-3.935649-1.559439-5.197033-3.527264-1.707643-2.710493-0.630692-3.711695 2.041927-4.862749 6.534165-2.450312 12.956353-5.346883 19.526746-7.685219 3.118878-1.113179 4.232057-2.153903 2.710493-5.605417-3.267082-7.238959-6.199882-14.627769-8.984477-22.052807-1.039077-2.782948-2.078154-3.30331-4.862749-2.078154-6.570393 2.931153-13.364739 5.309009-19.936778 8.203934-3.155106 1.411235-4.30616 0.444613-5.307363-2.48654s-2.005699-4.19583 1.633542-5.643292c17.262513-6.756471 34.413049-13.847226 51.639334-20.751902 2.302107-0.928747 6.12578 2.820823 6.013803 5.829371zM555.273928 917.717717q-1.261384-15.591097-2.672619-31.145966c-0.222307-2.636391-0.482487-4.900624 3.453162-4.826522 2.969027 0 5.197032-0.372158 5.419338 4.009751 0.630692 12.473866 1.92995 24.947731 2.746721 37.41995 0.594464 8.798398-2.152256 16.373287-10.468167 20.419266a29.700151 29.700151 0 0 1-28.88338 0c-6.94255-3.971876-8.686421-11.136733-9.466964-18.561771-1.299258-11.881048-2.078154-23.796678-3.341185-35.67608-0.296409-3.156753 0.558236-4.157955 3.713342-4.00975s5.12293-1.225156 5.419339 3.267082c0.742668 11.915629 1.893722 23.795031 3.118878 35.676079 1.449109 13.883454 14.850075 19.861029 26.433069 11.8053a10.357837 10.357837 0 0 0 4.380261-7.016653 48.484228 48.484228 0 0 0 0.148205-11.360686z" fill="#7A0304" p-id="5450"></path><path d="M673.848931 137.25552c-9.466964-1.225156-11.360686-4.269932-8.724296-12.771921a23.017782 23.017782 0 0 1 1.559439-4.232058c1.076952-1.745518 1.37336-5.345237 4.120081-4.380261s-0.184432 3.453161-0.222306 5.272781-1.113179 2.672618 0 3.711695 2.746721-0.186079 4.009751-0.778896c2.004052-1.004496 3.711695-2.37621 5.9397-3.342831 4.67667-2.190131 7.907525-4.788647 4.75242-10.580144a3.711695 3.711695 0 0 1 1.48369-4.936851c2.005699-1.559439 3.713342-0.186079 4.974726 1.076952a10.431939 10.431939 0 0 1 2.265879 2.524414c2.598516 4.566341 5.78985 5.383111 9.799601 1.707643 3.379059-3.118878 5.160805-0.706441 7.016653 1.967824 2.562288 3.711695-1.521565 3.711695-2.820823 4.528466a49.300999 49.300999 0 0 0-16.37164 16.37164c-9.913224 16.631821-25.095936 28.659427-40.838531 39.797807a18.859826 18.859826 0 0 1-10.059782 3.489389c-1.113179 0-2.450312 0-2.708846-1.337132s0.55659-1.633541 1.521565-2.041927c16.297538-7.201084 25.021834-21.420468 34.301072-36.04659z" fill="#7C0303" p-id="5451"></path><path d="M707.445209 828.284628c2.488186 21.828853 4.826522 42.692732 7.426685 63.55661 0.332636 2.634744-0.410032 3.971876-2.600163 4.714545s-3.711695 3.713342-6.532518 1.11318q-24.168835-21.04831-48.484228-41.986292c4.862749-4.788647 8.538217-4.788647 13.400966 0 11.731197 11.508891 24.093086 22.273466 36.566952 33.672028-2.450312-17.784521-4.566341-35.045388-7.425038-52.233798-0.927101-6.273984 3.787444-6.273984 7.648991-8.836273z" fill="#790406" p-id="5452"></path><path d="M165.582128 345.96676c0.66692-16.631821 1.225156-31.778305 1.92995-46.92479 0-1.225156-0.964975-3.341185 1.411235-3.711695s2.634744 1.113179 3.043129 2.710493c4.604215 18.821952 6.608267 37.680131 1.81962 56.798492-1.039077 4.083853-3.006901 4.790294-7.05288 5.0126a11.136733 11.136733 0 0 1-13.254409-9.503192 45.92194 45.92194 0 0 0-8.686421-16.521491c-2.562288-3.19298-0.55659-3.711695 1.781746-4.492238a9.985679 9.985679 0 0 1 10.061428 3.713342 72.541087 72.541087 0 0 1 8.946602 12.918479z" fill="#7D0202" p-id="5453"></path><path d="M868.378661 626.44019a11.136733 11.136733 0 0 1 8.984477-13.140785c8.093604-2.37621 15.81505-5.867245 24.168836-9.058579-6.237756-6.311858-11.917276-12.62207-18.265363-18.19126-5.0126-4.344034-6.570393-8.798398-3.006901-15.182712 7.981627 8.464115 16.259663 16.742151 23.907007 25.540549a21.49457 21.49457 0 0 0 13.959203 7.425037c4.862749 0.741022 9.615169 2.152256 14.44169 2.894925 4.194183 0.668566 2.634744 3.229208 2.152257 5.457214s-0.518715 4.67667-4.120081 3.19298c-16.780025-7.015006-32.298667-2.524414-47.593356 5.160805-4.528466 2.412437-9.466964 3.897774-14.627769 5.901826z" fill="#7C0304" p-id="5454"></path><path d="M915.491176 669.763614c0 5.309009-3.304957 7.685219-7.426684 6.125779-14.143635-5.419339-28.287269-10.690473-42.358449-16.297538-3.30331-1.299258-4.602568-0.741022-5.641645 2.524414-1.225156 3.973523-3.008548 7.759321-4.380262 11.658742-0.780543 2.190131-1.375007 4.008104-4.232057 2.262586-1.857494-1.113179-4.90227-0.66692-3.26873-4.788647 5.384758-13.28899 10.431939-26.729477 15.370438-40.204545 1.225156-3.342831 3.043129-2.414084 5.197032-1.633541s3.711695 1.559439 2.37621 4.418136c-1.81962 3.971876-2.896572 8.240162-4.826522 12.101708s-0.520362 4.492238 2.598516 5.643292c14.329713 5.309009 28.586972 10.840325 42.840937 16.37164 1.449109 0.55659 3.63924 0.408385 3.749569 1.817974z" fill="#7A0405" p-id="5455"></path><path d="M668.427945 915.267405c-0.964975 2.300461-3.711695 2.226359-5.419338 3.339538s-2.598516 0.186079-3.304957-1.521564c-7.423391-17.558922-14.848429-35.045388-22.273467-52.60431-1.671416-4.009751 2.37621-3.342831 4.045979-4.56634 2.598516-1.92995 3.713342 0 4.492238 2.004052q8.908728 21.160287 17.782875 42.284346l4.67667 11.064278z" fill="#7C0405" p-id="5456"></path><path d="M840.461903 685.059949l3.044776 1.559439c16.223436 8.240162 32.371122 16.593947 48.66866 24.613448 3.118878 1.557792 2.970674 2.820823 1.559439 5.381465s-2.078154 4.566341-5.791496 2.63639c-16.223436-8.576091-32.631303-16.816253-48.966716-25.170038-1.37336-0.704794-3.711695-0.928747-2.226359-3.491036 1.187281-1.928303 1.48369-4.528466 3.711696-5.529668z" fill="#7B0505" p-id="5457"></path><path d="M124.373087 268.562923c7.723093-4.528466 14.479565-3.971876 19.528392 2.228006s9.205137 12.473866 13.587045 18.896054a14.403816 14.403816 0 0 1 2.153903 5.791496 4.67667 4.67667 0 0 1-2.674265 5.197033c-1.745518 0.630692-2.116029-1.781746-2.931152-2.894925-8.391659-11.212482-16.966104-22.201011-29.663923-29.217664z" fill="#7A0607" p-id="5458"></path><path d="M189.154853 303.682413c-3.489389-8.908728-6.608267-16.966104-9.763373-24.983959-0.852998-2.153903-0.964975-3.713342 2.041926-3.713342h3.37906c12.584196-0.55659 12.658298-0.518715 9.949451 12.029252a52.75416 52.75416 0 0 1-5.607064 16.668049z" fill="#7A0608" p-id="5459"></path><path d="M694.490503 179.539866c5.641645-8.390013 5.048828-17.003979 3.711695-25.688753 8.129832 0.852998 12.103355 3.711695 12.399764 8.684775 0.334283 7.054527-6.348086 14.553667-16.111459 17.003978z" fill="#7A0708" p-id="5460"></path><path d="M381.606429 160.271655a24.799527 24.799527 0 0 1 13.06833 0.854645 9.168909 9.168909 0 0 1 6.013803 8.091957c0.260181 2.600163 0 5.198679-2.412438 6.497937s-3.379059-1.633541-4.640442-2.858697c-3.935649-3.823672-7.611116-7.871297-12.029253-12.585842z" fill="#7B0809" p-id="5461"></path><path d="M506.863802 174.899424a335.304098 335.304098 0 0 0-334.525202 336.084641c0 183.579076 150.797922 333.560227 334.897359 333.412022a334.749155 334.749155 0 1 0-0.372157-669.496663z m26.545045 653.087149A318.599822 318.599822 0 0 1 228.987241 665.30925h555.82393c-36.010363 70.535388-125.962167 152.581314-251.403971 162.678969z m258.122568-189.851414q-142.259704-0.334283-284.555637 0t-285.856541 0a8.576091 8.576091 0 0 1-9.392862-6.460062 318.7859 318.7859 0 0 1 91.326811-367.306357c68.901847-56.50373 147.975452-80.522714 236.59177-72.280906 123.141344 11.471016 232.47169 99.790926 270.486104 217.843921 24.020631 74.546786 21.160287 148.089075-7.609469 220.852469a9.949452 9.949452 0 0 1-10.988529 7.350935z" fill="#7B0101" p-id="5462"></path><path d="M905.05759 281.408947c-6.273984-3.935649-13.921328-5.791496-18.821952-11.991379a3.341185 3.341185 0 0 0-2.116028-0.742668 42.766834 42.766834 0 0 1-11.136734-2.782948c-10.283735-2.970674-10.618018-3.713342-7.723093-14.07118a27.842656 27.842656 0 0 0-8.464114 7.759321c-3.375766 3.711695-1.893722 6.49629 1.893722 8.574445a39.68583 39.68583 0 0 0 15.148131 4.344034c4.268285 0.482487 7.423391 0.964975 7.943752 6.23611 0.296409 2.748367 2.37621 6.94255 6.051678 3.935648 4.788647-3.971876 7.126982-0.55659 11.471016 2.041927-4.566341 0.630692-7.871297 1.300905-11.136733 1.521564a152.209156 152.209156 0 0 1-46.219995-4.602568c-3.713342-0.854645-10.506041 2.302107-11.136733 5.493441-0.928747 4.938498 3.415287 5.717394 6.532518 7.166504 2.450312 1.149407 5.124577 1.817973 8.612319 3.043129l-7.757674 2.822469c-7.833423 2.85705-7.647344 2.782948-4.528466 10.43194 2.116029 5.159158 4.788647 10.357837 3.339538 17.521047-1.595667-2.708846-2.48654-4.342387-3.451515-5.901827-5.12293-8.353785-11.136733-15.963255-20.195312-20.159084s-12.177457-2.672618-12.585842 7.647344a178.492374 178.492374 0 0 0 3.713342 34.416343c1.37336 8.834626 7.423391 11.988085 15.665199 8.53657a64.151074 64.151074 0 0 0 13.438841-9.799601 17.188411 17.188411 0 0 1 2.970674 14.031658c-1.002849 4.157955 2.524414 4.307806 4.640442 5.048828 3.081004 1.1527 2.412437-2.152256 2.672619-3.489389a34.080413 34.080413 0 0 0-2.450312-20.009233c-0.592817-1.37336-2.226359-2.524414-0.816771-4.566341a17.670898 17.670898 0 0 0 1.152701-16.892002c-1.671416-4.936851 0.370511-7.126982 4.490591-8.576091 3.415287-1.187281 6.866801-2.152256 10.209633-3.451515 6.013803-2.302107 6.310212-4.30616 1.817973-8.724295-1.149407-1.114826-2.969027-1.92995-3.043129-4.157956 5.345237 1.039077 10.468167 2.152256 15.628972 2.931153a80.968974 80.968974 0 0 0 31.630101 0c2.931153-0.741022 5.977575-1.854201 6.570392-5.455567a8.129832 8.129832 0 0 0-4.009751-8.129831z m-83.307309 61.402707c-4.528466 2.48654-7.607823 1.521565-10.24586-3.229208a55.686959 55.686959 0 0 1-5.641646-23.498623c8.464115 3.451515 16.111459 7.089108 20.863879 14.848429 3.043129 4.752419 1.48369 8.31591-4.974726 11.879402z" fill="#7B0303" p-id="5463"></path><path d="M825.01901 789.267364a55.2407 55.2407 0 0 0-17.820749-0.668566c4.047625-7.05288 5.457213-13.438841 1.040724-19.898904-7.016652-10.209633-18.563418-10.728348-27.992508-1.001202-6.310212 6.49629-12.287787 13.326864-18.561771 19.859382-1.92995 2.005699-2.37621 3.08265 0 5.272781q20.307289 18.561771 40.24242 37.607676c2.598516 2.48654 3.897774 1.707643 5.717395-0.520362s3.711695-3.118878 0.482487-5.717394c-5.234907-4.380262-10.061428-9.243011-14.850075-13.997077-0.852998-0.852998-3.451515-1.595667-1.633541-3.375766 4.974726-4.90227 8.650194-11.991378 17.522693-10.543915 6.311858 1.076952 12.696172 1.893722 19.044259 3.006901 7.648991 1.37336 9.987326 0.222307 13.180306-7.054527-5.56919-1.001203-10.988529-1.855848-16.37164-2.969027z m-26.284864-1.633541c-3.711695 4.418136-7.943753 8.612319-11.841527 12.956353-1.411235 1.597314-2.414084 1.92995-4.083853 0.260181-3.713342-3.713342-10.171758-7.090755-11.13838-11.546765s5.939701-7.683572 9.206783-11.619221a21.902956 21.902956 0 0 1 9.058579-7.425038 9.354988 9.354988 0 0 1 12.547968 9.244658 12.325661 12.325661 0 0 1-3.74957 8.129832z" fill="#7B0304" p-id="5464"></path><path d="M267.116925 795.355269c-5.56919-5.419339-11.546765-10.394065-17.114308-15.777176-2.153903-2.041927-3.230855-1.411235-4.900624 0.444613-12.177457 13.736896-24.391142 27.434271-36.790905 40.838531-2.412437 2.634744-1.669769 3.711695 0.520362 5.715748 5.12293 4.492238 10.023554 9.244658 15.220586 13.624919a25.540549 25.540549 0 0 0 20.751902 7.201085c14.44169-2.078154 30.332489-20.12121 30.332489-35.305569 0.554943-6.570393-3.194627-12.027606-8.019502-16.742151z m-25.58007 44.029865a18.043056 18.043056 0 0 1-12.361889-4.826522c-12.361889-9.727145-12.399764-9.689271-2.190131-21.086185 6.311858-7.054527 12.808149-13.959203 18.933929-21.198161 2.37621-2.820823 3.711695-2.48654 6.162007 0 3.342831 3.377412 6.904676 6.49629 10.283735 9.801247a13.735249 13.735249 0 0 1 4.157955 9.911577c0 11.136733-13.8851 26.6175-24.985606 27.398044z" fill="#7A0305" p-id="5465"></path><path d="M302.494949 825.72234c-16.92823 0-32.259146 16.705923-32.259145 35.305568a29.958685 29.958685 0 0 0 30.292968 29.217664c16.259663 0 31.666328-17.076434 31.666328-35.379671a29.700151 29.700151 0 0 0-29.700151-29.143561z m6.163654 53.867339a19.008031 19.008031 0 0 1-21.866727-1.669769 18.561771 18.561771 0 0 1-7.759321-19.973005 33.820232 33.820232 0 0 1 11.620867-19.676597 18.561771 18.561771 0 0 1 21.234389-2.524414 19.712825 19.712825 0 0 1 11.879402 19.045905 32.074714 32.074714 0 0 1-15.10861 24.799527z m-122.064392-180.608402c-0.630692-2.190131-2.079801-2.450312-4.418136-2.116029-20.751902 3.006901-41.541678 5.829371-62.701965 8.724296 1.781746 5.865599 4.045979 8.908728 10.580143 7.425038 13.140785-2.784595 13.252762-2.37621 19.749053 9.577294 5.717394 10.469814 5.717394 10.469814-2.004052 19.676597-5.345237 6.422188-5.345237 6.422188 0 14.365941 13.661147-17.040206 27.286067-33.930562 40.836884-50.858791 2.264233-2.858697-1.37336-4.528466-2.041927-6.794346z m-25.986809 28.140712l-9.616815-17.37449c9.578941-2.228005 19.008031-2.48654 29.327993-5.495088l-19.711178 22.869578z" fill="#7A0404" p-id="5466"></path><path d="M396.792434 715.761302a102.499772 102.499772 0 0 1-16.15098 10.023554c-2.560642 1.225156-3.935649 1.669769-4.008104-2.190131a8.501989 8.501989 0 0 1 5.269488-9.31876 39.946011 39.946011 0 0 0 16.817899-14.850075 5.791496 5.791496 0 0 1 6.720244-2.782948c3.118878 0.630692 1.669769 3.377412 1.669769 5.159158v71.648567c0 3.713342-0.704794 5.384758-4.898977 5.124577-3.491036-0.222307-5.791496 0-5.717394-4.900624 0.482487-19.044258 0.296409-37.978187 0.296409-57.913318z" fill="#7B0102" p-id="5467"></path><path d="M604.35262 715.761302a73.618039 73.618039 0 0 1-19.342314 11.136733c-1.449109-6.12578-0.889226-10.431939 5.681167-13.326864a35.974135 35.974135 0 0 0 15.405018-13.921328 5.829371 5.829371 0 0 1 7.090755-3.006901c2.748367 0.778896 1.485337 3.711695 1.485337 5.383111v71.091978c0 3.971876-0.630692 5.605418-5.160805 5.420985s-5.531316-0.816771-5.457213-5.309009c0.296409-17.040206 0-34.118287 0-51.156846l0.296408-6.311859z" fill="#7C0202" p-id="5468"></path><path d="M804.155132 563.552146c-2.005699-2.598516-3.304957-2.970674-5.643292-0.408385a28.586972 28.586972 0 0 1-10.357837 6.866801c-25.726628 10.433586-50.562383 10.209633-73.802471-6.60662a5.271135 5.271135 0 0 0-7.9454 0.370511 37.123542 37.123542 0 0 1-9.205136 6.570392 64.817994 64.817994 0 0 1-76.180327-11.136733c-3.711695-3.415287-5.271135-2.412437-7.981628 0.296409a55.686959 55.686959 0 0 1-13.066683 10.804096 79.223456 79.223456 0 0 1-38.610525 7.685219c-3.043129 0-3.191334-1.597314-3.267083-3.897774q-1.37336-32.707052-3.006901-65.340003c0-3.117231 1.745518-2.338335 3.230855-2.338335a119.798513 119.798513 0 0 0 15.92538-0.186079c11.658742-1.817973 19.156235 1.671416 21.124059 14.07118 0.55659 3.377412 2.672618 4.342387 6.12578 4.194183 10.431939-0.408385 20.863878-0.370511 31.295818-0.630692 5.531316 0 11.136733-0.482487 17.076434-0.778896l-6.458416-16.705924h29.290118a4.936851 4.936851 0 0 1 5.197033 3.303311c2.414084 5.160805 5.048828 10.171758 7.426684 15.25846 0.778896 1.521565 1.409588 2.894925 3.711696 2.858697h41.986291c-3.489389-6.830574-5.977575-12.06548-8.834626-17.114308-2.116029-3.713342-1.002849-4.344034 2.782948-4.269932 8.501989 0.222307 17.076434-0.186079 25.58007 0 4.528466 0.222307 6.348086-0.668566 6.087905-5.717394-0.482487-9.280885-0.334283-18.561771 0-27.878884 0-4.269932-0.780543-5.867245-5.495087-5.755269-15.368791 0.334283-30.737581 0-46.108019 0.260181a7.425038 7.425038 0 0 1-7.685219-4.862749q-30.180992-58.87994-60.622164-117.610029c-6.460063-12.547968-12.956353-25.058061-19.714471-38.126391l-33.820232 58.247601-69.940924-139.73529-80.634691 151.020228-61.625013-55.945494c-0.928747 1.559439-1.745518 2.822469-2.414084 4.157955q-25.726628 51.565232-51.267177 103.206213a7.425038 7.425038 0 0 1-7.685219 4.936852c-24.279165-0.222307-48.55833 0-72.837495-0.222307-4.566341 0-5.791496 1.299258-5.643292 5.715748 0.334283 9.096453 0.482487 18.229134 0 27.323941-0.296409 5.420986 1.485337 6.460063 6.534165 6.38596 18.933928-0.296409 37.829983 0 57.579034 0-5.791496 11.767425-11.136733 22.867931-16.966104 34.338947a425.109345 425.109345 0 0 0 43.807558 1.114826 6.534165 6.534165 0 0 0 6.830574-4.45601c4.454364-9.243011 9.168909-18.30159 13.847226-27.396397 0.816771-1.597314 1.076952-3.713342 3.711695-3.713342h37.940313l-13.957556 33.003461c13.17866 1.337133 25.652525 2.414084 38.052289 3.713342a6.94255 6.94255 0 0 0 8.353785-4.456011c4.492238-9.391215 9.689271-18.561771 14.365941-27.768554a7.425038 7.425038 0 0 1 7.759321-4.788647c10.24586 0.334283 20.493368 0 30.739228 0h12.844376c-8.203934 14.145281-15.851278 27.360169-24.539346 42.284346h27.918405c2.894925 0 3.971876 0.852998 3.935649 3.897775v47.221198c0 2.636391-0.818417 3.713342-3.304957 4.157955-19.342314 2.932799-38.014415 1.485337-54.461803-10.097656-4.120081-2.931153-6.348086-2.782948-9.873703 0a71.576112 71.576112 0 0 1-54.091293 16.113106c-15.256814-1.26303-29.698504-5.0126-40.168317-17.114309-1.707643-1.931597-2.450312-1.225156-3.971877 0-21.234389 16.854128-56.874241 18.227488-79.742171 3.489389-2.153903-1.37336-3.713342-5.865599-7.128629-3.379059a14.329713 14.329713 0 0 0-4.045979 8.167706 17.114308 17.114308 0 0 0 0.444613 11.136733 27.990861 27.990861 0 0 0 13.662794 15.44454 73.690494 73.690494 0 0 0 71.278057 0.518715c3.155106-1.595667 5.717394-5.531316 8.760523-5.827724s4.752419 4.862749 7.907525 6.608267c0.966622 0.55659 1.857494 1.337133 2.82247 1.893722a71.61234 71.61234 0 0 0 49.300999 8.798398c15.740948-2.450312 29.698504-8.093604 37.940312-23.054009 2.746721 2.560642 5.048828 5.121283 7.723093 7.16321 20.527949 15.594391 58.209727 15.852925 79.371661 0.410032 3.005255-2.190131 4.712898-3.713342 7.089108 0.778896a22.793828 22.793828 0 0 0 8.167706 7.759321 71.760544 71.760544 0 0 0 50.340076 9.392862c15.146484-2.228005 28.735176-7.723093 37.495699-21.754751a33.597925 33.597925 0 0 0 12.770275 13.17866 73.097677 73.097677 0 0 0 74.250377-0.630692c3.711695-1.967824 6.384314-7.202731 9.577294-7.426685s6.013803 5.088349 9.689271 7.166504a75.287807 75.287807 0 0 0 52.344128 7.425037 51.008642 51.008642 0 0 0 28.028735-13.997077 20.529595 20.529595 0 0 0 2.079801-27.582475z m-199.059843-160.376862a141.072423 141.072423 0 0 0 11.136733-8.576092c2.190131-1.817973 3.229208-1.781746 4.528466 0.854645 11.731197 23.684701 23.500269 47.296947 35.750181 71.834646H630.527154a4.528466 4.528466 0 0 1-4.938498-3.451514q-11.136733-27.62035-22.273466-55.166598a3.711695 3.711695 0 0 1 1.781745-5.495087z m-196.052942 10.654245c-0.372158 0.632339-0.55659 1.411235-0.890873 2.079801-2.748367 5.345237-3.081004 13.140785-7.907525 15.740949s-11.434789 0.518715-17.262513 0.518715v0.334283h-14.850075c-2.746721 0-3.713342-0.370511-2.302108-3.415287 6.311858-12.251559 12.473866-24.575574 18.561771-36.901235 1.300905-2.672618 2.37621-2.672618 4.418136-0.741022 6.237756 5.827724 12.51174 11.581346 18.933929 17.150536 2.041927 1.669769 2.598516 3.079357 1.299258 5.23326z m126.220701 14.850076v-32.967234c0-3.711695-0.741022-5.121283-4.676671-4.750772-6.422188 0.630692-12.882251 0.890873-19.304439 0.928747-3.379059 0-4.045979 1.37336-4.083853 4.380262 0 10.80245-0.370511 21.6049-0.592818 32.408997 0 1.893722 0.370511 3.713342-2.748367 3.713342h-49.411329l59.807041-113.600278c11.581346 28.735176 22.757601 56.539958 33.968436 84.382615 3.377412 8.390013 6.644495 16.892002 10.171758 25.24414 1.151054 2.784595 1.37336 4.083853-2.302108 3.973523H538.459321c-2.822469 0.296409-3.230855-1.004496-3.194627-3.527263v-0.186079z m26.879328 9.170555c1.002849 2.37621 1.633541 3.711695 2.226358 5.309009 3.118878 7.683572 6.199882 15.368791 9.504839 23.572725h-28.511223l16.780026-28.88338z" fill="#7B0000" p-id="5469"></path><path d="M489.823595 716.281664a26.545045 26.545045 0 0 0-24.983959-19.750699 25.616298 25.616298 0 0 0-24.68755 16.631821c-4.269932 11.693323-0.890873 25.985162 7.795548 32.74328 9.987326 7.907525 21.49457 6.644495 33.932208-4.344034a53.645033 53.645033 0 0 1-4.195829 19.936778 16.966104 16.966104 0 0 1-5.271135 6.570393 13.17866 13.17866 0 0 1-21.234389-5.903474c-2.079801-6.273984-6.570393-3.711695-9.578941-2.894924-3.711695 0.890873-0.816771 4.344034 0 6.087905a19.750699 19.750699 0 0 0 15.81505 13.8851 26.693249 26.693249 0 0 0 31.592227-18.561771 78.517016 78.517016 0 0 0 0.81677-44.400375z m-24.501471 25.35447a15.963255 15.963255 0 0 1-16.111459-16.854127c0-10.914427 6.682369-19.118361 15.851278-19.340667s15.332563 7.425038 15.406665 18.041409-5.829371 18.043056-15.146484 18.265362v-0.111977z" fill="#7A0303" p-id="5470"></path><path d="M557.166003 713.124912c-3.97023-9.985679-11.135086-16.147687-22.273466-16.593947a22.683498 22.683498 0 0 0-22.979907 15.258461 73.654266 73.654266 0 0 0 0.408385 53.831111 21.272264 21.272264 0 0 0 20.789776 14.067886 22.683498 22.683498 0 0 0 22.275113-12.770274c4.862749-8.984477 5.271135-18.784077 5.383111-28.697302a63.964996 63.964996 0 0 0-3.601365-25.095935z m-9.317113 46.183767c-2.338335 7.423391-7.425038 11.731197-13.624919 11.693323a14.217737 14.217737 0 0 1-13.697375-12.213685 87.649697 87.649697 0 0 1 0.222306-41.61578c1.893722-7.426684 6.682369-11.510537 12.844377-11.731197a14.55202 14.55202 0 0 1 14.107407 11.136733 87.42739 87.42739 0 0 1 2.562288 21.977058 98.415919 98.415919 0 0 1-2.414084 20.753548z" fill="#7B0203" p-id="5471"></path></svg>