<svg xmlns="http://www.w3.org/2000/svg" viewBox="0 0 128 128">
  <!-- 背景 -->
  <circle cx="64" cy="64" r="60" fill="#00599C" opacity="0.1"/>
  
  <!-- C++ 立方体 -->
  <path d="M40 40L80 40L80 80L40 80Z" fill="#00599C"/>
  <path d="M80 40L100 50L100 90L80 80Z" fill="#659AD2"/>
  <path d="M40 80L60 90L100 90L80 80Z" fill="#004482"/>
  
  <!-- 立方体边缘 -->
  <path d="M40 40L80 40" stroke="#FFFFFF" stroke-width="2"/>
  <path d="M80 40L80 80" stroke="#FFFFFF" stroke-width="2"/>
  <path d="M40 80L80 80" stroke="#FFFFFF" stroke-width="2"/>
  <path d="M40 40L40 80" stroke="#FFFFFF" stroke-width="2"/>
  <path d="M80 40L100 50" stroke="#FFFFFF" stroke-width="2"/>
  <path d="M100 50L100 90" stroke="#FFFFFF" stroke-width="2"/>
  <path d="M80 80L100 90" stroke="#FFFFFF" stroke-width="2"/>
  <path d="M40 80L60 90" stroke="#FFFFFF" stroke-width="2"/>
  <path d="M60 90L100 90" stroke="#FFFFFF" stroke-width="2"/>
  
  <!-- C++ 文字 -->
  <text x="60" y="65" text-anchor="middle" font-family="Arial, sans-serif" font-size="14" font-weight="bold" fill="#FFFFFF">C++</text>
  
  <!-- 代码符号 -->
  <text x="25" y="45" font-family="monospace" font-size="8" fill="#FFFFFF">#include</text>
  <text x="25" y="55" font-family="monospace" font-size="8" fill="#FFFFFF">&lt;iostream&gt;</text>
</svg> 