<svg t="1755695680984" class="icon" viewBox="0 0 1024 1024" version="1.1" xmlns="http://www.w3.org/2000/svg" p-id="3835" width="200" height="200"><path d="M653.88544 0a92.16 92.16 0 0 1 65.09568 26.9312l187.61728 187.21792a92.16 92.16 0 0 1 27.05408 65.2288v120.6272A80.10752 80.10752 0 0 1 1013.76 480.09216v319.7952a80.10752 80.10752 0 0 1-77.55776 80.06656l-2.54976 0.03072v48.00512c0 53.02272-43.02848 96-96.12288 96H196.7104c-53.0944 0-96.12288-42.97728-96.12288-96v-48.00512A80.10752 80.10752 0 0 1 20.48 799.8976v-319.7952a80.10752 80.10752 0 0 1 77.55776-80.06656l2.54976-0.04096V96C100.58752 42.97728 143.616 0 196.7104 0h457.17504zM837.5296 879.99488H196.7104v17.28512a30.72 30.72 0 0 0 30.72 30.72h579.3792a30.72 30.72 0 0 0 30.72-30.72v-17.28512zM356.0448 555.78624c-16.41472 0-30.6176 2.23232-42.56768 6.69696-11.97056 4.4544-22.6304 11.53024-32.01024 21.1968-7.80288 8.02816-13.89568 17.70496-18.2784 29.0304a96.64512 96.64512 0 0 0-6.58432 35.21536c0 23.552 7.03488 41.96352 21.0944 55.23456 14.05952 13.27104 33.65888 19.9168 58.7776 19.9168 6.90176 0 13.98784-0.512 21.26848-1.52576a216.2688 216.2688 0 0 0 22.60992-4.44416l4.0448-36.89472a99.61472 99.61472 0 0 1-19.4048 7.424 74.5472 74.5472 0 0 1-18.8416 2.47808c-14.0288 0-25.12896-3.69664-33.30048-11.08992-8.17152-7.38304-12.25728-17.37728-12.25728-29.97248 0-19.3536 5.39648-34.48832 16.19968-45.39392 10.79296-10.91584 25.83552-16.37376 45.1072-16.37376a75.776 75.776 0 0 1 20.19328 2.59072 66.8672 66.8672 0 0 1 17.83808 7.87456l10.56768-32.512a208.72192 208.72192 0 0 0-28.11904-7.08608 152.59648 152.59648 0 0 0-26.32704-2.36544z m154.24512 26.2144h-26.7776v55.57248h-54.10816v25.98912h54.10816v55.79776h26.7776V663.552h53.89312v-25.97888h-53.89312v-55.57248z m191.92832 0H675.4304v55.57248h-54.10816v25.98912h54.10816v55.79776h26.7776V663.552h53.88288v-25.97888h-53.88288v-55.57248zM608.33792 88.32H227.4304a30.72 30.72 0 0 0-30.72 30.72v280.95488h640.8192v-81.5616H700.52864c-50.8928-0.01024-92.14976-41.2672-92.16-92.16l-0.03072-137.95328z m96.12288 59.84256v58.91072a15.36 15.36 0 0 0 15.36 15.36h59.0848l-74.4448-74.27072z" fill="#FF6B08" p-id="3836"></path></svg>