<svg xmlns="http://www.w3.org/2000/svg" viewBox="0 0 24 24" fill="none" stroke="#2496ED" stroke-width="2" stroke-linecap="round" stroke-linejoin="round">
  <path d="M22 12.5c0-.5-.3-1-.9-1.5-.6-.4-1.4-.6-2.2-.7V8c0-.6-.4-1-1-1.4-.6-.4-1.3-.6-2.1-.6-.8 0-1.6.2-2.1.6-.6.4-.9.9-.9 1.4v2.3c-.8.1-1.6.3-2.2.7-.6.4-.9.9-.9 1.5 0 .5.3 1 .9 1.5.6.4 1.4.7 2.2.7V17c0 .6.4 1 1 1.4.6.4 1.3.6 2.1.6.8 0 1.6-.2 2.1-.6.6-.4.9-.9.9-1.4v-2.3c.8-.1 1.6-.3 2.2-.7.6-.4.9-.9.9-1.5z"/>
  <path d="M5 12.5c0 .5.3 1 .9 1.5.6.4 1.4.6 2.2.7V17c0 .6.4 1 1 1.4.6.4 1.3.6 2.1.6M5 12.5c0-.5.3-1 .9-1.5.6-.4 1.4-.6 2.2-.7V8c0-.6.4-1 1-1.4.6-.4 1.3-.6 2.1-.6"/>
  <path d="M10.1 8.1h6.8"/>
  <path d="M10.1 15.9h6.8"/>
</svg> 