<svg xmlns="http://www.w3.org/2000/svg" viewBox="0 0 24 24">
  <path fill="#326CE5" d="M12 2.5c-.45 0-.89.12-1.28.34L4.68 6.74c-.77.45-1.3 1.26-1.38 2.16l-.67 6.92c-.07.9.28 1.79.96 2.4l5.02 4.54c.77.7 1.84.94 2.82.66l7.15-2c.9-.25 1.62-.95 1.94-1.83l2.36-6.43c.32-.88.2-1.87-.32-2.65l-4.24-6.3c-.6-.91-1.6-1.43-2.7-1.38-.23 0-.45.02-.67.07l-2.95.8z"/>
  <path fill="white" d="M12 3.5c-.63 0-1.25.15-1.8.47L6.87 6.42c-.38.22-.68.57-.85.98-.07.18-.13.38-.16.58L4.8 15.37c-.07.86.29 1.7.94 2.28l3.84 3.44c.8.72 1.92.96 2.94.65l5.92-1.7c.57-.16 1.05-.54 1.35-1.06l3.1-5.44c.3-.52.37-1.15.19-1.73L19.8 5.62c-.25-.82-.85-1.47-1.65-1.78-.23-.09-.47-.15-.7-.2L12 3.5z"/>
  <path fill="#326CE5" d="M12 5.66l1.15 2.82 3.03.26-2.27 2.05.7 2.97L12 12.44l-2.61 1.52.7-2.97-2.27-2.05 3.03-.26L12 5.66z"/>
</svg> 