<svg t="1755695832791" class="icon" viewBox="0 0 1264 1024" version="1.1" xmlns="http://www.w3.org/2000/svg" p-id="6124" width="200" height="200"><path d="M1242.886621 0H21.473508A21.473508 21.473508 0 0 0 0 21.473508v770.61261a21.473508 21.473508 0 0 0 21.473508 21.473507h458.960436v167.49336h-116.529568a21.473508 21.473508 0 0 0 0 42.947015H900.455753a21.473508 21.473508 0 0 0 0-42.947015h-116.529568v-74.012023a21.473508 21.473508 0 0 0-42.947015 0v74.012023h-217.598211v-167.49336h719.505662a21.473508 21.473508 0 0 0 21.473508-21.473507V21.473508a21.473508 21.473508 0 0 0-21.473508-21.473508z m-21.473508 770.755767H42.947015V42.947015h1178.466098z" fill="#1296db" p-id="6125"></path><path d="M321.100517 534.547183a21.902978 21.902978 0 0 0 15.174612 6.298896 21.473508 21.473508 0 0 0 15.174612-36.64812L262.835733 415.154481l88.614008-88.470852a21.473508 21.473508 0 1 0-30.349224-30.349224L217.455054 400.838809a21.187194 21.187194 0 0 0 0 30.206067zM552.298616 534.547183a21.330351 21.330351 0 0 0 15.174612 6.298896 21.902978 21.902978 0 0 0 15.174612-6.298896l104.504404-103.78862A21.473508 21.473508 0 0 0 687.152244 400.838809l-104.504404-104.074934a21.473508 21.473508 0 1 0-30.349224 30.349224L640.912624 415.154481l-88.614008 88.614008a21.330351 21.330351 0 0 0 0 30.778694zM413.722913 574.201594a19.898784 19.898784 0 0 0 5.010486 0A21.473508 21.473508 0 0 0 439.634279 558.311198l69.574165-293.184957a21.473508 21.473508 0 0 0-41.658605-9.877814l-69.717321 293.184958a21.473508 21.473508 0 0 0 15.890395 25.768209zM675.842863 519.372571a21.473508 21.473508 0 0 0 21.473508 21.473508h2.863134a21.473508 21.473508 0 0 0 0-42.947016h-2.863134a21.473508 21.473508 0 0 0-21.473508 21.473508zM780.20411 540.846079h2.863135a21.473508 21.473508 0 0 0 0-42.947016h-2.863135a21.473508 21.473508 0 0 0 0 42.947016zM863.09185 540.846079h2.863134a21.473508 21.473508 0 1 0 0-42.947016h-2.863134a21.473508 21.473508 0 0 0 0 42.947016zM946.122746 540.846079h2.719977a21.473508 21.473508 0 0 0 0-42.947016h-2.719977a21.473508 21.473508 0 0 0 0 42.947016zM1029.010485 540.846079h2.863134a21.473508 21.473508 0 0 0 0-42.947016h-2.863134a21.473508 21.473508 0 0 0 0 42.947016z" fill="#1296db" p-id="6126"></path></svg>