<svg xmlns="http://www.w3.org/2000/svg" viewBox="0 0 128 128">
  <!-- 背景 -->
  <circle cx="64" cy="64" r="60" fill="#10B981" opacity="0.1"/>
  
  <!-- 中心节点 -->
  <circle cx="64" cy="64" r="15" fill="#10B981"/>
  
  <!-- 周围节点 -->
  <circle cx="64" cy="20" r="10" fill="#10B981"/>
  <circle cx="64" cy="108" r="10" fill="#10B981"/>
  <circle cx="20" cy="64" r="10" fill="#10B981"/>
  <circle cx="108" cy="64" r="10" fill="#10B981"/>
  <circle cx="35" cy="35" r="8" fill="#10B981"/>
  <circle cx="93" cy="35" r="8" fill="#10B981"/>
  <circle cx="35" cy="93" r="8" fill="#10B981"/>
  <circle cx="93" cy="93" r="8" fill="#10B981"/>
  
  <!-- 连接线 -->
  <path d="M64 30V50" stroke="#10B981" stroke-width="3" stroke-linecap="round"/>
  <path d="M64 78V98" stroke="#10B981" stroke-width="3" stroke-linecap="round"/>
  <path d="M30 64H50" stroke="#10B981" stroke-width="3" stroke-linecap="round"/>
  <path d="M78 64H98" stroke="#10B981" stroke-width="3" stroke-linecap="round"/>
  <path d="M43 43L49 49" stroke="#10B981" stroke-width="2" stroke-linecap="round"/>
  <path d="M79 43L85 49" stroke="#10B981" stroke-width="2" stroke-linecap="round"/>
  <path d="M43 85L49 79" stroke="#10B981" stroke-width="2" stroke-linecap="round"/>
  <path d="M79 85L85 79" stroke="#10B981" stroke-width="2" stroke-linecap="round"/>
  
  <!-- 数据流点 -->
  <circle cx="64" cy="40" r="2" fill="#FFFFFF"/>
  <circle cx="64" cy="88" r="2" fill="#FFFFFF"/>
  <circle cx="40" cy="64" r="2" fill="#FFFFFF"/>
  <circle cx="88" cy="64" r="2" fill="#FFFFFF"/>
</svg> 