<svg t="1755696294960" class="icon" viewBox="0 0 1024 1024" version="1.1" xmlns="http://www.w3.org/2000/svg" p-id="15082" width="200" height="200"><path d="M422.4 550.4v326.4L64 825.6V550.4h358.4z m0-403.2v345.6H64V198.4l358.4-51.2zM960 64v422.4l-123.342-0.002c-82.483-51.467-187.214-50.927-268.872-0.001l-81.386 0.003v-352L960 64z" fill="#1296DB" p-id="15083"></path><path d="M826.774 558.414c75.424 65.295 87.564 177.746 27.811 257.622l97.835 97.796c10.253 10.666 10.084 27.572-0.38 38.032A26.753 26.753 0 0 1 933.094 960a26.754 26.754 0 0 1-19.103-7.756l-97.834-97.796c-79.908 59.73-192.404 47.595-257.725-27.8-65.321-75.394-61.268-188.426 9.286-258.951 70.554-70.526 183.63-74.578 259.055-9.283z m-220.941 47.422c-53.11 53.11-53.11 139.22 0 192.331 53.11 53.11 139.22 53.11 192.33 0 34.357-34.357 47.775-84.432 35.2-131.364-12.576-46.932-49.234-83.59-96.166-96.166-46.932-12.575-97.007 0.843-131.364 35.2z" fill="#66758E" p-id="15084"></path></svg>