<svg xmlns="http://www.w3.org/2000/svg" viewBox="0 0 128 128">
  <!-- 背景 -->
  <circle cx="64" cy="64" r="60" fill="#3776AB" opacity="0.1"/>
  
  <!-- Python蛇 -->
  <!-- 身体 -->
  <path d="M30 40 Q50 30 70 40 Q90 50 70 60 Q50 70 30 60 Q10 50 30 40" fill="#3776AB"/>
  <path d="M70 40 Q90 50 70 60 Q50 70 30 60 Q10 50 30 40 Q50 30 70 40" fill="#FFD43B"/>
  
  <!-- 头部 -->
  <ellipse cx="25" cy="50" rx="8" ry="6" fill="#3776AB"/>
  
  <!-- 眼睛 -->
  <circle cx="22" cy="48" r="2" fill="#FFFFFF"/>
  <circle cx="22" cy="48" r="1" fill="#000000"/>
  
  <!-- 舌头 -->
  <path d="M18 50L15 48M18 50L15 52" stroke="#FF0000" stroke-width="1" stroke-linecap="round"/>
  
  <!-- 身体纹理 -->
  <ellipse cx="50" cy="50" rx="15" ry="8" fill="#FFD43B"/>
  <ellipse cx="70" cy="50" rx="12" ry="6" fill="#3776AB"/>
  
  <!-- 代码符号 -->
  <text x="85" y="45" font-family="monospace" font-size="12" fill="#3776AB">def</text>
  <text x="85" y="60" font-family="monospace" font-size="12" fill="#3776AB">print()</text>
</svg> 