<svg xmlns="http://www.w3.org/2000/svg" viewBox="0 0 48 48">
  <path fill="#6DB33F" d="M44,24c0,11.044-8.956,20-20,20S4,35.044,4,24S12.956,4,24,4S44,12.956,44,24z"/>
  <path fill="#FFFFFF" d="M24,12.048c-6.591,0-11.952,5.361-11.952,11.952S17.409,35.952,24,35.952c1.863,0,3.625-0.428,5.199-1.191c-0.793-0.49-1.697-1.036-2.639-1.644c-0.855,0.316-1.786,0.499-2.76,0.499c-4.065,0-7.36-3.295-7.36-7.36c0-4.064,3.295-7.36,7.36-7.36c3.573,0,6.545,2.547,7.196,5.931c0.759,0.45,1.571,0.922,2.442,1.403c-0.097-6.523-5.394-11.792-11.939-11.792L24,12.048z"/>
  <path fill="#FFFFFF" d="M35.088,32.624c3.535-2.165,6.368-5.021,7.704-7.914c1.494,1.659,2.381,3.851,2.381,6.242c0,1.32-0.275,2.58-0.771,3.718c-1.454-0.493-2.753-1.124-3.908-1.856c-1.437,0.137-2.768-0.02-5.406-0.19H35.088z"/>
  <path fill="#FFFFFF" d="M35.08,28.184c-1.275-0.77-2.658-1.577-4.099-2.401c-0.367-0.21-0.75-0.42-1.142-0.633c-1.316-0.718-2.696-1.448-4.063-2.143c-0.887-0.449-1.773-0.884-2.645-1.293c-0.292-0.138-0.6-0.306-0.875-0.457c0.072-2.7,2.252-4.888,4.974-4.977c0.504,0.203,1.07,0.416,1.678,0.652c0.578,0.226,1.193,0.465,1.86,0.729c0.867,0.342,1.8,0.711,2.784,1.103c0.772,0.308,1.563,0.628,2.372,0.961c1.827,0.749,3.607,1.55,5.293,2.422c0.084,0.044,0.165,0.086,0.248,0.129c0.086,0.044,0.168,0.087,0.252,0.132c0.476,1.312,0.734,2.726,0.734,4.198c0,0.729-0.058,1.445-0.17,2.142c-0.246,0.028-1.728-0.054-7.201-0.564V28.184z"/>
</svg> 