<svg t="1755696138323" class="icon" viewBox="0 0 1080 1024" version="1.1" xmlns="http://www.w3.org/2000/svg" p-id="12039" width="200" height="200"><path d="M404.94952 1016.547307c-16.395924 0-29.810771-13.414847-29.810772-29.810771V801.909753c0-16.395924 13.414847-29.810771 29.810772-29.810772s29.810771 13.414847 29.810771 29.810772v184.826783c0 16.395924-13.414847 29.810771-29.810771 29.810771zM679.208617 1016.547307c-16.395924 0-29.810771-13.414847-29.810771-29.810771V801.909753c0-16.395924 13.414847-29.810771 29.810771-29.810772s29.810771 13.414847 29.810772 29.810772v184.826783c0 16.395924-13.414847 29.810771-29.810772 29.810771z" fill="#333333" p-id="12040"></path><path d="M1035.924309 827.248908H44.716157c-25.339156 0-44.716157-19.377001-44.716157-44.716157V44.716157c0-25.339156 19.377001-44.716157 44.716157-44.716157h991.208152c25.339156 0 44.716157 19.377001 44.716157 44.716157v737.816594c0 23.848617-19.377001 44.716157-44.716157 44.716157zM59.621543 767.627365h961.39738V59.621543H59.621543v708.005822zM1035.924309 59.621543zM816.338166 1022.509461h-551.499272c-16.395924 0-29.810771-13.414847-29.810772-29.810771s13.414847-29.810771 29.810772-29.810772h552.989811c16.395924 0 29.810771 13.414847 29.810771 29.810772s-14.905386 29.810771-31.30131 29.810771z" fill="#333333" p-id="12041"></path><path d="M32.314876 222.090247h1016.547307v59.621543h-1016.547307z" fill="#333333" p-id="12042"></path><path d="M779.074702 450.142649c31.30131 0 56.640466 25.339156 56.640465 56.640466 0 31.30131-25.339156 56.640466-56.640465 56.640466-31.30131 0-56.640466-25.339156-56.640466-56.640466 0-31.30131 25.339156-56.640466 56.640466-56.640466m0-23.848617c-44.716157 0-81.979622 37.263464-81.979622 81.979622s37.263464 81.979622 81.979622 81.979621 81.979622-37.263464 81.979621-81.979621c0-46.206696-37.263464-81.979622-81.979621-81.979622m201.222707 131.167394c7.452693-31.30131 7.452693-62.60262 0-93.90393-1.490539-7.452693-8.943231-10.43377-14.905386-8.943231-7.452693 1.490539-10.43377 8.943231-8.943231 14.905386 5.962154 26.829694 5.962154 55.149927 0 81.979621-1.490539 7.452693 2.981077 13.414847 8.943231 14.905386 7.452693 1.490539 13.414847-2.981077 14.905386-8.943232z m-14.905386 8.943232h1.490539c7.452693 0 13.414847-4.471616 13.414847-11.924309s-4.471616-13.414847-11.924309-13.414847h-2.981077c-7.452693 0-11.924309 5.962154-11.924308 11.924309 0 7.452693 4.471616 13.414847 11.924308 13.414847z m-40.244541 76.017467c-14.905386-22.358079-8.943231-53.659389 14.905386-67.074236 7.452693-4.471616 17.886463-7.452693 26.829694-7.452692 7.452693 0 13.414847-4.471616 13.414847-11.924309s-4.471616-13.414847-11.924309-13.414847h-2.981077c-40.244541 0-74.526929 32.791849-74.526928 74.526928 0 14.905386 4.471616 28.320233 11.924308 40.244542 4.471616 5.962154 11.924309 7.452693 17.886463 2.981077 5.962154-4.471616 7.452693-11.924309 4.471616-17.886463z m-84.960699 64.093159c31.30131-8.943231 59.621543-25.339156 83.47016-49.187773 4.471616-4.471616 4.471616-13.414847 0-17.886463-4.471616-4.471616-13.414847-4.471616-17.886463 0-20.86754 19.377001-44.716157 34.282387-73.03639 41.73508-5.962154 1.490539-10.43377 8.943231-8.943231 14.905386 1.490539 2.981077 13.414847 0 16.395924 1.490538s7.452693-2.981077 10.43377-2.981077l-10.43377 11.924309z m-105.828239-5.962154c8.943231-17.886463 26.829694-28.320233 46.206696-28.320233s35.772926 10.43377 44.716157 28.320233c1.490539 4.471616 10.43377 7.452693 10.43377 7.452692s8.943231-1.490539 11.924309-5.962154c2.981077-4.471616 2.981077-8.943231 0-13.414847-17.886463-37.263464-61.112082-52.16885-98.375546-35.772926-14.905386 7.452693-28.320233 19.377001-35.772926 35.772926-2.981077 5.962154 0 13.414847 5.962155 16.395924 5.962154 2.981077 11.924309 0 14.905385-4.471615z m-95.394468-41.735081c23.848617 22.358079 50.678311 38.754003 81.979621 47.697235 7.452693 1.490539 13.414847-1.490539 16.395925-8.943232 1.490539-5.962154-1.490539-13.414847-8.943232-16.395924-26.829694-8.943231-52.16885-22.358079-73.03639-41.73508-4.471616-4.471616-11.924309-5.962154-17.886463-1.490539s-5.962154 11.924309-1.490538 17.886463l2.981077 2.981077z m-43.225619-92.413391c26.829694 0 49.187773 22.358079 49.187773 49.187773 0 10.43377-2.981077 19.377001-8.943231 26.829694-4.471616 4.471616-5.962154 13.414847 0 17.886463 4.471616 4.471616 13.414847 5.962154 17.886462 0 1.490539-1.490539 2.981077-2.981077 2.981078-4.471616 7.452693-11.924309 11.924309-26.829694 11.924308-41.73508 0-40.244541-32.791849-74.526929-74.526929-74.526928-7.452693 0-13.414847 4.471616-13.414847 11.924308s4.471616 13.414847 11.924309 13.414847c1.490539 1.490539 1.490539 1.490539 2.981077 1.490539z m-2.981077 0h2.981077c7.452693 0 13.414847-4.471616 13.414847-11.924309s-4.471616-13.414847-11.924308-13.414847h-7.452693c-7.452693 0-13.414847 5.962154-13.414847 11.924309s5.962154 13.414847 11.924308 13.414847h4.471616z m-11.924309-102.847162c-7.452693 31.30131-7.452693 62.60262 0 93.90393 1.490539 7.452693 7.452693 11.924309 14.905386 10.433771 7.452693-1.490539 11.924309-7.452693 10.43377-14.905386V551.499272c-5.962154-26.829694-5.962154-55.149927 0-81.979621 1.490539-5.962154-2.981077-13.414847-8.943231-14.905386-8.943231-1.490539-14.905386 1.490539-16.395925 8.943231z m14.905386-10.43377h-2.981077c-7.452693-1.490539-13.414847 4.471616-14.905386 10.43377s4.471616 13.414847 10.43377 14.905386h5.962154c7.452693 0 13.414847-4.471616 13.414848-11.924308s-4.471616-13.414847-11.924309-13.414848c1.490539 0 1.490539 0 0 0z m41.73508-76.017467c14.905386 22.358079 8.943231 52.16885-13.414847 67.074236-7.452693 5.962154-17.886463 8.943231-26.829694 8.943231-7.452693 0-13.414847 4.471616-13.414848 11.924309s4.471616 13.414847 11.924309 13.414847h2.981077c40.244541 0 74.526929-32.791849 74.526929-74.526929 0-14.905386-4.471616-28.320233-11.924309-41.73508-4.471616-5.962154-11.924309-5.962154-17.886463-1.490538-7.452693 4.471616-8.943231 11.924309-5.962154 16.395924z m83.47016-64.093159c-31.30131 8.943231-59.621543 25.339156-81.979621 47.697235-5.962154 4.471616-5.962154 11.924309-1.490539 17.886463 4.471616 5.962154 11.924309 5.962154 17.886463 1.490538 20.86754-19.377001 44.716157-34.282387 73.03639-41.73508 7.452693-1.490539 10.43377-8.943231 8.943232-16.395924s-8.943231-11.924309-16.395925-8.943232z m104.3377 5.962155c-7.452693 17.886463-25.339156 28.320233-44.716157 28.320233s-35.772926-10.43377-44.716157-26.829695c-2.981077-5.962154-10.43377-10.43377-16.395924-7.452693-5.962154 2.981077-10.43377 10.43377-7.452693 16.395925 0 0 0 1.490539 1.490538 1.490538 11.924309 25.339156 38.754003 41.73508 67.074236 41.73508s55.149927-16.395924 67.074236-41.73508c2.981077-5.962154-1.490539-13.414847-7.452693-16.395924-5.962154-2.981077-11.924309 0-14.905386 4.471616z m96.885008 43.225618c-23.848617-22.358079-52.16885-40.244541-83.47016-49.187773-5.962154-1.490539-13.414847 1.490539-16.395925 8.943232-2.981077 5.962154 1.490539 13.414847 7.452693 16.395924 26.829694 8.943231 52.16885 22.358079 73.03639 43.225619 4.471616 4.471616 13.414847 4.471616 17.886463 0 7.452693-5.962154 7.452693-14.905386 1.490539-19.377002z m43.225618 90.922853c-26.829694 0-49.187773-22.358079-49.187773-49.187773 0-8.943231 2.981077-19.377001 7.452693-26.829694 4.471616-5.962154 2.981077-13.414847-2.981077-17.886463s-13.414847-2.981077-17.886463 2.981077c0 0 0 1.490539-1.490538 1.490539-22.358079 34.282387-11.924309 80.489083 22.358078 102.847162 11.924309 7.452693 25.339156 11.924309 40.244542 11.924308 7.452693 0 13.414847-4.471616 13.414847-11.924308s-4.471616-13.414847-11.924309-13.414848c1.490539 0 1.490539 0 0 0z m2.981077 0h-1.490538c-7.452693 0-13.414847 4.471616-13.414847 11.924309s4.471616 13.414847 11.924308 13.414847h5.962155c7.452693 0 13.414847-4.471616 13.414847-11.924308s-4.471616-13.414847-11.924309-13.414848h-4.471616z" fill="#1A6CFE" p-id="12043"></path><path d="M701.566696 733.344978l7.452693-14.905386c-25.339156-8.943231-49.187773-22.358079-70.055313-40.244541-4.471616-1.490539-8.943231-4.471616-13.414847-7.452693-4.471616-5.962154-7.452693-11.924309-7.452693-19.377001 0-2.981077 0-5.962154 1.490538-8.943232 1.490539-4.471616 4.471616-10.43377 7.452693-13.414847 1.490539-4.471616 2.981077-8.943231 2.981077-13.414847 0-17.886463-13.414847-31.30131-29.810771-34.282387h-2.981077c-7.452693 1.490539-14.905386 0-20.86754-4.471616-1.490539-1.490539-2.981077-1.490539-2.981078-2.981077l-1.490538-1.490539c-4.471616-5.962154-7.452693-11.924309-7.452693-19.377001V551.499272c-4.471616-20.86754-4.471616-41.73508-2.981077-62.60262l-2.981077 2.981077 5.962154-25.339155V462.066958c1.490539-14.905386 14.905386-25.339156 29.810771-23.848617h2.981078l5.962154-2.981078v2.981078c4.471616 0 8.943231-2.981077 13.414847-5.962155 14.905386-10.43377 19.377001-29.810771 10.43377-44.716157h-1.490538l-1.490539-4.471616s0-1.490539-1.490539-1.490538c-5.962154-10.43377-2.981077-25.339156 5.962155-32.791849 23.848617-23.848617 55.149927-41.73508 87.941776-50.678311 14.905386-4.471616 29.810771 4.471616 34.282387 19.377001 5.962154 8.943231 16.395924 14.905386 28.320233 14.905386 13.414847 0 23.848617-7.452693 29.810771-19.377002 2.981077-5.962154 7.452693-10.43377 11.924309-13.414847 5.962154-2.981077 13.414847-4.471616 20.86754-1.490538 31.30131 8.943231 59.621543 26.829694 84.960698 47.697234 1.490539 0 1.490539 1.490539 1.490539 1.490539 7.452693 5.962154 11.924309 16.395924 10.43377 25.339155 0 5.962154-2.981077 10.43377-5.962154 16.395925-2.981077 4.471616-2.981077 10.43377-2.981077 14.905385 0 17.886463 14.905386 32.791849 32.791848 34.282388h5.962154c14.905386 0 26.829694 13.414847 26.829695 28.320233v1.490538c5.962154 29.810771 5.962154 61.112082-1.490539 90.922853-1.490539 13.414847-13.414847 23.848617-26.829694 23.848617H962.410946c-4.471616 0-10.43377 2.981077-14.905386 5.962155-13.414847 8.943231-19.377001 26.829694-11.924308 41.73508l2.981077 5.962154c7.452693 11.924309 4.471616 28.320233-7.452693 37.263464-23.848617 22.358079-52.16885 38.754003-83.47016 49.187773-4.471616 1.490539-7.452693 2.981077-10.43377 2.981077l-4.471616 1.490539-4.471615-1.490539c-5.962154-2.981077-14.905386-7.452693-19.377002-16.395924-4.471616-10.43377-17.886463-17.886463-29.810771-17.886463s-22.358079 5.962154-28.320233 13.414847v1.490539c-2.981077 11.924309-14.905386 20.86754-28.320233 19.377001l-20.86754 7.452693z m78.998544-101.356623c25.339156 0 49.187773 10.43377 65.583697 29.810772 11.924309-5.962154 23.848617-11.924309 34.282388-19.377002-2.981077-8.943231-4.471616-16.395924-4.471616-25.339156 0-41.73508 28.320233-77.508006 67.074236-86.451237 1.490539-13.414847 1.490539-25.339156 0-38.754003-8.943231-2.981077-19.377001-5.962154-26.829695-11.924308-19.377001-13.414847-34.282387-32.791849-38.754003-56.640466-2.981077-14.905386-2.981077-29.810771 1.490539-44.716157-10.43377-7.452693-22.358079-14.905386-34.282387-19.377002-16.395924 19.377001-40.244541 29.810771-65.583697 29.810772-25.339156 0-49.187773-10.43377-65.583698-29.810772-11.924309 4.471616-22.358079 11.924309-32.791848 19.377002 2.981077 8.943231 4.471616 17.886463 4.471615 26.829694 0 41.73508-29.810771 77.508006-68.564774 86.451237-1.490539 11.924309-1.490539 25.339156 0 37.263465 38.754003 8.943231 68.564774 44.716157 68.564774 86.451237 0 8.943231-1.490539 17.886463-4.471615 26.829694 10.43377 7.452693 22.358079 14.905386 34.282387 19.377002 7.452693-8.943231 17.886463-16.395924 28.320233-20.86754 11.924309-5.962154 23.848617-8.943231 37.263464-8.943232z m-1.490538-26.829694c-53.659389 0-96.885007-43.225619-96.885008-96.885007s43.225619-96.885007 96.885008-96.885008 96.885007 43.225619 96.885007 96.885008-43.225619 96.885007-96.885007 96.885007z m0-140.110626c-22.358079 0-41.73508 19.377001-41.73508 41.73508 0 23.848617 19.377001 41.73508 41.73508 41.73508 10.43377 0 20.86754-4.471616 29.810771-11.924309 7.452693-7.452693 11.924309-17.886463 11.924309-29.810771 0-10.43377-4.471616-22.358079-11.924309-29.810771-8.943231-7.452693-19.377001-11.924309-29.810771-11.924309z" fill="#1A6CFE" p-id="12044"></path><path d="M97.898574 135.624105a29.810771 22.358079 0 1 0 59.621542 0 29.810771 22.358079 0 1 0-59.621542 0Z" fill="#1A6CFE" p-id="12045"></path><path d="M209.688967 135.624105m-22.358079 0a22.358079 22.358079 0 1 0 44.716157 0 22.358079 22.358079 0 1 0-44.716157 0Z" fill="#1A6CFE" p-id="12046"></path><path d="M261.857817 135.624105a29.810771 22.358079 0 1 0 59.621543 0 29.810771 22.358079 0 1 0-59.621543 0Z" fill="#1A6CFE" p-id="12047"></path></svg>