<svg xmlns="http://www.w3.org/2000/svg" viewBox="0 0 24 24" fill="none" stroke="#6366f1" stroke-width="1.5" stroke-linecap="round" stroke-linejoin="round">
  <path d="M12 22a10 10 0 1 0 0-20 10 10 0 0 0 0 20z"/>
  <path d="M12 16a4 4 0 1 0 0-8 4 4 0 0 0 0 8z"/>
  <line x1="12" y1="2" x2="12" y2="4"/>
  <line x1="12" y1="20" x2="12" y2="22"/>
  <line x1="2" y1="12" x2="4" y2="12"/>
  <line x1="20" y1="12" x2="22" y2="12"/>
  <line x1="5" y1="5" x2="7" y2="7"/>
  <line x1="17" y1="17" x2="19" y2="19"/>
  <line x1="5" y1="19" x2="7" y2="17"/>
  <line x1="17" y1="7" x2="19" y2="5"/>
</svg> 