<svg xmlns="http://www.w3.org/2000/svg" viewBox="0 0 32 32">
  <path d="M16 32C7.164 32 0 24.836 0 16S7.164 0 16 0s16 7.164 16 16-7.164 16-16 16z" fill="#F9B01E"/>
  <path d="M10.667 22h10.667c.736 0 1.333-.597 1.333-1.333 0-.737-.597-1.334-1.333-1.334H10.667c-.736 0-1.334.597-1.334 1.334 0 .736.598 1.333 1.334 1.333zm0-4h10.667c.736 0 1.333-.597 1.333-1.333 0-.736-.597-1.334-1.333-1.334H10.667c-.736 0-1.334.598-1.334 1.334 0 .736.598 1.333 1.334 1.333zm0-4h10.667c.736 0 1.333-.597 1.333-1.333 0-.737-.597-1.334-1.333-1.334H10.667c-.736 0-1.334.597-1.334 1.334 0 .736.598 1.333 1.334 1.333z" fill="#FFF"/>
</svg> 