<svg xmlns="http://www.w3.org/2000/svg" viewBox="0 0 32 32">
  <path d="M31.396 14.575L17.425.604a2.06 2.06 0 00-2.914 0l-2.9 2.9 3.68 3.68c.856-.286 1.836-.095 2.518.587a2.45 2.45 0 01.581 2.533l3.547 3.547c.858-.286 1.848-.094 2.533.582a2.45 2.45 0 010 3.469 2.45 2.45 0 01-3.47 0 2.45 2.45 0 01-.542-2.67l-3.31-3.31v8.713a2.452 2.452 0 01.647.464 2.45 2.45 0 010 3.469 2.45 2.45 0 01-3.471 0 2.45 2.45 0 010-3.469c.253-.252.545-.443.857-.571v-8.8a2.452 2.452 0 01-.857-.571 2.45 2.45 0 01-.529-2.688l-3.617-3.617-9.554 9.554a2.06 2.06 0 000 2.914l13.971 13.971a2.06 2.06 0 002.914 0l13.907-13.907a2.06 2.06 0 000-2.914" fill="#F05032"/>
</svg> 