<svg xmlns="http://www.w3.org/2000/svg" viewBox="0 0 32 32">
  <path d="M30.865 17.063c-1.688 0.875-10.438 4.479-12.313 5.458s-2.875 1-4.354 0.021c-1.479-0.979-10.688-4.417-12.313-5.229-0.813-0.406-1.229-0.75-1.229-1.073v-3.229c0 0 11.979-2.625 13.917-3.333s2.313-0.333 3.792 0.292c1.479 0.625 11.104 2.229 12.667 2.792v3.208c0 0.333-0.333 0.688-1.167 1.094zM30.865 12.771c-1.688 0.875-10.438 4.479-12.313 5.458s-2.875 1-4.354 0.021c-1.479-0.979-10.688-4.417-12.313-5.229-0.813-0.406-1.229-0.75-1.229-1.073v-3.229c0 0 11.979-2.625 13.917-3.333s2.313-0.333 3.792 0.292c1.479 0.625 11.104 2.229 12.667 2.792v3.208c0 0.333-0.333 0.688-1.167 1.094zM30.865 8.563c0 0.292-0.438 0.542-1.229 0.958-1.688 0.875-10.438 4.479-12.313 5.458s-2.875 1-4.354 0.021c-1.479-0.979-10.688-4.417-12.313-5.229-0.813-0.406-1.229-0.75-1.229-1.073s0.646-0.75 1.417-1c1.625-0.521 10.667-2.625 12.542-3.062s2.313-0.333 3.792 0.292c1.479 0.625 10.521 2.917 12.021 3.417 0.729 0.25 1.667 0.479 1.667 0.917zM18.208 26.229c-2.104 0.375-3.938-0.479-4.125-0.604 0 0-0.208 0.125-0.521 0.292 0.625 0.146 1.042 0.188 1.042 0.188l-0.021 0.396c-1.229 0.042-2.063-0.333-2.375-0.479-0.229 0.104-0.646 0.292-0.958 0.396 0.687 0.271 1.792 0.5 2.896 0.396l-0.021 0.354c-1.542 0.292-2.729-0.208-3.083-0.396-0.792 0.313-1.25 0.458-2.708 0.75 0.333 0.167 0.667 0.313 2.062 0.625 1.396 0.313 4.188-0.083 6.146-0.958 1.458-0.646 1.604-1.125 1.667-1.542-0.479 0.167-1.687 0.688-3.125 0.75l-0.063-0.354c1.604-0.292 2.479-0.792 2.771-1.021-0.396-0.021-1.292-0.042-2.208 0.146l-0.042-0.396c2.271-0.333 3.708-0.021 4.708 0.354 0.667-0.333 1.479-1.292 1.708-1.833-0.5 0.125-1.271 0.333-2.125 0.583-1.167 0.354-1.708 0.417-3.083 0.646-1.583 0.25-2.75 0.125-3.5-0.021-0.396-0.083-0.604-0.167-0.75-0.208 0.229-0.25 0.646-0.417 0.646-0.417s-1.458-0.042-2.583 0.75c-0.021-0.146-0.125-0.292-0.438-0.688 0.542-0.146 1.083-0.5 2.104-0.542 1.146-0.042 2.625 0.458 4.479 0.167 1.583-0.25 3.521-0.937 4.583-1.604 0.125-0.396 0.167-0.875 0.146-1.333-0.062 0.062-0.146 0.125-0.229 0.188-0.417 0.354-0.792 0.604-1.708 0.875-1.417 0.417-3.271 0.604-4.375 0.396-1.062-0.229-1.979-0.979-2.188-1.229 0.125-0.062 0.208-0.104 0.208-0.104s-0.583-0.229-0.958-0.479c-0.083-0.292-0.063-0.417-0.021-0.625 0.396 0.229 1.208 0.604 2.521 0.708 1.646 0.146 3.479-0.396 4.792-0.75 0.604-0.167 1.604-0.604 2.375-1.062 0.021-0.271 0.042-0.542 0.063-0.833 0.021-0.875 0-1.979-0.125-2.542-0.021-0.062-0.021-0.125-0.042-0.188-0.021 0-0.063 0-0.083 0-0.229 0.271-0.854 0.667-1.271 0.812-1.417 0.5-2.833 0.667-4.354 0.667-1.042 0-3-0.5-3-0.5s-0.125 0.333-0.646 0.646c-0.396 0.229-0.583 0.25-0.896 0.313 0.021 0.042 0.062 0.104 0.125 0.167-0.708 0.083-1.292 0.604-1.292 0.604s0 0.083 0.021 0.229c-0.417 0.167-0.875 0.646-0.917 0.979 0 0 0.021 0.021 0.042 0.042-0.25 0.25-0.521 0.667-0.542 1.188 0.708 0.25 1.812 0.229 2.688 0.021 1.083-0.271 2.25-0.708 3.792-0.667 1.042 0.021 2.188 0.167 3.396 0.688 0.896 0.375 1.646 0.979 2.104 1.417 0 0.875-0.042 2.208 0.021 2.938 0.083 0.917 0.417 1.583 0.667 2-0.125 0.083-0.729 0.417-1.5 0.812-1.167 0.583-2.792 1.125-4.146 1.375-0.917 0.188-1.542 0.5-2.125 0.688z" fill="#A41E11"/>
</svg> 