<svg t="1744707270813" class="icon" viewBox="0 0 1024 1024" version="1.1" xmlns="http://www.w3.org/2000/svg" p-id="2112" width="200" height="200"><path d="M214.269573 88.515986l618.780978 0c43.171242 0 64.75584 21.585621 64.75584 64.75584l0 79.146595c0 40.809451-17.987676 59.978023-53.963029 57.560974L174.696276 289.979394l0 266.219247c-2.417049 143.902434-25.182542 247.051699-68.353784 309.390489-12.028964 14.390755-22.821775 17.987676-32.378431 10.79281-7.194866-9.612938-6.014994-21.585621 3.597945-35.975353 38.33612-62.33879 58.740846-157.056012 61.158918-284.206924L138.720923 167.662581C136.303874 114.935706 161.486416 88.515986 214.269573 88.515986zM174.696276 156.86977l0 97.134271 651.15941 0c23.945365 2.417049 35.975353-8.375761 35.975353-32.378431l0-64.75584c0-21.585621-9.613962-32.378431-28.780487-32.378431L207.074707 124.491339C185.489086 126.909411 174.696276 137.702222 174.696276 156.86977zM717.928604 325.954747l0 86.34146L894.20947 412.296207c9.555633 2.417049 14.390755 8.432043 14.390755 17.987676 0 12.028964-4.835122 17.987676-14.390755 17.987676L717.928604 448.27156l0 133.109624 205.061352 0c9.555633 2.417049 14.390755 8.432043 14.390755 17.987676 0 12.029988-4.835122 17.987676-14.390755 17.987676L548.843628 617.356536c16.750499 50.366108 47.947012 98.371448 93.536326 143.902434 81.506339-21.585621 165.488055-56.323796 251.829516-104.329137 9.555633-4.777817 16.750499-2.360767 21.585621 7.194866 7.194866 12.029988 5.957689 20.404726-3.597945 25.182542-79.146595 45.588291-157.113317 79.146595-233.841839 100.732216 71.951729 47.948035 155.874093 80.326467 251.829516 97.134271 11.971659 2.360767 17.987676 9.555633 17.987676 21.585621-4.835122 11.972683-13.210883 17.987676-25.182542 17.987676C709.496561 883.576807 571.608098 780.484847 509.270331 617.35756L322.196655 617.35756l0 255.426437c-2.417049 7.194866-2.417049 11.972683 0 14.390755 2.360767 0 8.375761 0 17.987676 0 71.951729-19.224854 139.067312-48.00534 201.463408-86.34146 11.971659-7.194866 22.76447-5.957689 32.378431 3.597945 4.776793 9.612938 1.178849 17.987676-10.79281 25.182542-69.590961 43.171242-145.139611 75.54865-226.646973 97.134271-38.393425 11.972683-55.200206-1.237177-50.366108-39.573297L286.220279 617.35756l-75.54865 0c-12.028964 0-19.224854-5.957689-21.585621-17.987676 2.360767-9.555633 9.555633-15.570627 21.585621-17.987676l187.073676 0L397.745305 448.272583 221.464439 448.272583c-9.612938 0-15.626909-4.777817-17.987676-14.390755 0-11.972683 4.777817-19.167548 14.390755-21.585621l179.877787 0 0-82.743516c0-9.555633 5.957689-14.390755 17.987676-14.390755 9.555633 0 15.570627 4.834098 17.987676 14.390755l0 82.743516 248.232594 0 0-86.34146c0-9.555633 5.957689-14.390755 17.987676-14.390755C709.496561 311.565015 715.510532 316.399113 717.928604 325.954747zM433.720657 448.272583l0 133.109624 248.232594 0L681.953252 448.272583 433.720657 448.272583z" p-id="2113" fill="#2E7BEE"></path></svg>