<?xml version="1.0" standalone="no"?><!DOCTYPE svg PUBLIC "-//W3C//DTD SVG 1.1//EN" "http://www.w3.org/Graphics/SVG/1.1/DTD/svg11.dtd"><svg t="1744452002262" class="icon" viewBox="0 0 1029 1024" version="1.1" xmlns="http://www.w3.org/2000/svg" p-id="4129" xmlns:xlink="http://www.w3.org/1999/xlink" width="200.9765625" height="200"><path d="M992.459235 315.792388c24.176794 59.668374 37.523045 124.881938 37.523045 193.213564 0 16.009596-0.77361 31.84203-2.202722 47.473679-247.425329-82.823529-453.29421-40.204106-601.354925 21.18865-148.928812 61.747082-301.005213 71.343391-416.379423 32.928628A516.877878 516.877878 0 0 1 0.000089 509.005952c0-43.546574 5.432987-85.823483 15.613933-126.222469 114.67737 36.288812 264.273495 26.02519 410.816516-34.735686 140.956494-58.445952 334.305882-99.884291 566.028697-32.255409zM937.910861 802.853795c-93.039908 133.639677-247.767843 221.146205-422.916724 221.146205-154.125582 0-292.436448-67.764706-386.822791-175.089827 157.733795 8.816794 270.66316 7.346344 371.321061-35.355755 104.661776-44.408766 281.617716-61.085675 438.418454-10.700623z" fill="#0018D2" p-id="4130"></path><path d="M92.31363 562.390957l2.267681-0.395663 5.291257 30.01135-2.267681 0.401568-0.437001-2.486182c-0.507866-2.887751-1.889735-4.807013-4.139701-5.757785-1.452734-0.602353-4.700715-0.460623-9.708512 0.419284l-53.999169 9.519539c-4.228281 0.744083-6.986113 1.464544-8.249873 2.143668a5.397555 5.397555 0 0 0-2.279493 2.586574 8.680969 8.680969 0 0 0-0.63188 5.019608l0.437001 2.486182-2.291303 0.401569-5.291257-30.017255 2.291303-0.401569 0.448812 2.539331c0.501961 2.852318 1.877924 4.759769 4.110173 5.710543 1.476355 0.625975 4.712526 0.513772 9.714418-0.372042l54.005075-9.519539c4.228281-0.744083 6.986113-1.464544 8.249873-2.143667a5.368028 5.368028 0 0 0 2.267681-2.633818c0.732272-1.653518 0.956678-3.318847 0.667313-4.972365l-0.454717-2.539331z m-84.854995-4.594417l-0.336609-19.293011 62.886828-44.574117-48.932318 0.856286c-5.208581 0.088581-8.468374 0.643691-9.732134 1.635801-1.724383 1.340531-2.568858 3.395617-2.521614 6.182976l0.041337 2.468466-2.326735 0.041338-0.431096-24.749619 2.326736-0.041338 0.041338 2.52752c0.053149 3.005859 1.181084 5.114095 3.360184 6.330611 1.358247 0.744083 4.399539 1.068881 9.165214 0.986206l71.502837-1.246044 0.035433 1.89564-67.504868 48.058316 52.262976-0.909435c5.208581-0.094487 8.450657-0.614164 9.732134-1.588558 1.730288-1.352341 2.568858-3.425144 2.521615-6.182976l-0.047244-2.503898 2.30902-0.041338 0.431095 24.731903-2.309019 0.041338-0.041338-2.45075c-0.053149-3.047197-1.181084-5.173149-3.383806-6.407382-1.340531-0.744083-4.399539-1.068881-9.141592-0.986205l-59.012872 1.033449c-2.846413 2.108235-4.718431 3.720415-5.621961 4.789296-0.897624 1.092503-1.724383 2.663345-2.480277 4.736148-0.342514 1.027543-0.507866 2.574764-0.472433 4.623944l-2.320831 0.035433z m10.505744-164.902976l26.621638 3.318847-0.34842 1.789342c-6.897532 0.55511-12.283276 1.954694-16.174948 4.186944-5.586528 3.212549-9.017578 8.090427-10.281338 14.610011-1.724383 8.887659 1.151557 16.470219 8.639631 22.718155 6.336517 5.26173 14.391511 8.83451 24.176794 10.736055 7.948697 1.541315 15.454487 1.671234 22.493748 0.377947 7.062884-1.305098 12.519493-3.744037 16.369827-7.322722 3.868051-3.566874 6.236125-7.553033 7.092411-11.946667 0.501961-2.580669 0.584637-5.137716 0.277555-7.694763a27.802722 27.802722 0 0 0-2.090519-7.606182l-24.094118-4.682999c-4.175133-0.809043-6.950681-1.080692-8.356171-0.803138a6.082584 6.082584 0 0 0-3.419239 1.907451c-0.903529 0.974394-1.623991 2.870035-2.173194 5.686921l-2.326736-0.454718 5.255824-27.023206 2.326736 0.454717-0.248027 1.281477c-0.525582 2.686967 0.188973 4.718431 2.131857 6.141638 1.375963 0.9803 4.310957 1.89564 8.757739 2.757831l25.493702 4.954648c1.765721 4.440877 2.87594 8.710496 3.330658 12.773426 0.442907 4.080646 0.200784 8.462468-0.714556 13.169089-2.616101 13.476171-9.767566 22.712249-21.448489 27.720046-8.775456 3.744037-18.200507 4.62985-28.322399 2.663345a52.930288 52.930288 0 0 1-20.214256-8.521523c-7.310911-5.049135-12.519493-11.060854-15.63165-17.987912-2.574764-5.805029-3.1594-12.188789-1.807059-19.145375 0.496055-2.545236 1.175179-4.801107 2.084614-6.797139 0.885813-1.978316 2.545236-4.700715 4.966459-8.190819 1.228328-1.748005 1.901546-2.964521 2.031465-3.614118 0.124014-0.649596-0.124014-1.281476-0.744083-1.877924-0.625975-0.596448-1.972411-1.145652-4.033403-1.659423l0.377947-1.919262z" fill="#FFFFFF" p-id="4131"></path><path d="M111.943249 641.340531c5.887705-5.657393 9.838431-10.984083 11.846274-16.003691a25.157093 25.157093 0 0 0 1.281477-15.265514l1.907451-0.620069c1.287382 4.647566 1.783437 9.903391 1.47045 15.785191-0.295271 5.869988-1.476355 11.71045-3.50782 17.550911a80.455456 80.455456 0 0 1-7.405398 15.767474c-0.738178 5.533379-1.948789 10.115986-3.620023 13.74782-2.545236 5.303068-6.253841 9.986067-11.131719 14.060807-4.901499 4.07474-11.15534 7.352249-18.814671 9.838432-12.070681 3.9212-23.143345 3.909389-33.259331-0.053149-10.092364-3.968443-16.653287-10.600231-19.676863-19.91308-2.870035-8.83451-1.375963-17.787128 4.523552-26.857854 5.881799-9.058916 14.928904-15.578501 27.117694-19.541039 9.873864-3.206644 19.298916-3.71451 28.245628-1.541314 8.958524 2.190911 15.968258 6.537301 21.023299 13.045075z m-76.138593 34.02113c1.966505 6.03534 6.129827 10.068743 12.48406 12.088397 7.972318 2.551142 18.643414 1.653518 31.971949-2.669251 13.03917-4.240092 22.352018-9.879769 27.867682-16.883598 4.257809-5.427082 5.409366-11.149435 3.454671-17.155248-2.03737-6.265652-6.389666-10.399446-13.080507-12.454533-7.877832-2.409412-18.09421-1.576747-30.637324 2.497993-9.649458 3.135779-17.350127 7.01564-23.13744 11.604152-4.458593 3.560969-7.381776 7.269573-8.775455 11.202584a17.95248 17.95248 0 0 0-0.147636 11.769504zM106.752384 390.425098l-2.137763-0.862191 0.998017-2.474372c1.127935-2.787359 0.856286-5.190865-0.814948-7.22233-0.9803-1.228328-3.702699-2.751926-8.137671-4.541268l-50.839769-20.54496c-4.91331-1.984221-8.167197-2.757832-9.755755-2.356263-2.214533 0.572826-3.826713 2.120046-4.83654 4.606228l-0.998016 2.474372-2.155479-0.868097 10.842353-26.834233c3.974348-9.844337 8.356171-16.800923 13.086413-20.869758 4.747958-4.045213 10.87188-6.377855 18.354048-7.003829 7.499885-0.602353 15.324567 0.732272 23.48586 4.027497 10.948651 4.429066 18.974118 10.907313 24.070496 19.452457 5.669204 9.572687 5.911326 20.769366 0.744083 33.566413l-11.905329 29.450334z m1.913356-21.100069c2.751926-3.679077 4.677093-6.909343 5.805029-9.702607 3.035386-7.517601 2.409412-15.023391-1.907451-22.540992-4.293241-7.50579-11.840369-13.452549-22.635479-17.816655-10.854164-4.387728-20.432757-5.362122-28.700346-2.929089-8.2794 2.421223-13.978131 7.511696-17.12572 15.295041-1.181084 2.923183-1.966505 6.466436-2.344453 10.653379l66.90842 27.040923z m23.580346-100.592941l12.708466 2.379884c4.1397 0.779516 6.997924 1.600369 8.586482 2.51571a4.62985 4.62985 0 0 1 2.285398 3.053102c0.330704 1.352341-0.124014 3.295225-1.393679 5.828651l1.996032 1.151557 14.031281-24.306713-1.996033-1.151557c-1.635802 2.403506-3.602307 3.891672-5.881799 4.458593-2.273587 0.56692-6.360138 0.295271-12.27737-0.826759l-73.49887-13.854118-0.909435 1.582653 47.963829 56.585744c4.228281 4.936932 6.773518 8.686874 7.600277 11.226205 0.431096 1.26376 0.177163 3.324752-0.749988 6.218409l1.996032 1.151557 11.196678-19.387497-1.996032-1.151557c-1.978316 2.828697-3.643645 4.429066-5.013702 4.830634a4.588512 4.588512 0 0 1-3.708605-0.366136c-1.423206-0.820854-3.253887-2.562953-5.509758-5.244014l-9.188835-10.865975 13.759631-23.828373z m-4.747958-1.039354l-12.218316 21.159123-23.503576-27.855871 35.721892 6.696748z m2.001938-91.581269c6.058962-6.968397 14.450565-10.275433 25.210242-9.885675 10.759677 0.383852 20.846136 4.671188 30.288904 12.885629 9.738039 8.468374 15.572595 18.070588 17.509573 28.788927 1.9606 10.736055-0.242122 19.753633-6.596355 27.064544-6.407382 7.375871-14.952526 10.854164-25.576378 10.44669-10.641569-0.42519-20.934717-4.960554-30.879447-13.611995-10.169135-8.846321-15.932826-18.950496-17.33241-30.336148-1.181084-9.909296 1.281476-18.342238 7.375871-25.351972z m2.787358 3.72632c-4.181038 4.807013-5.397555 10.511649-3.667266 17.108005 2.149573 8.20263 8.314833 16.741869 18.5194 25.611811 10.458501 9.094348 20.137486 14.208443 29.019239 15.36 6.791234 0.850381 12.230127-1.080692 16.346205-5.805029 4.381822-5.037324 5.645582-11.243922 3.808997-18.607981-1.842491-7.358155-7.806967-15.442676-17.917048-24.229943-10.948651-9.513633-20.692595-14.810796-29.225928-15.873771-6.814856-0.814948-12.436817 1.316909-16.883599 6.436908zM225.5104 93.919815l-1.334625-1.907451 20.627635-14.444659 1.334626 1.907451-2.202723 1.541315c-2.285398 1.600369-3.247982 3.968443-2.87594 7.127843 0.147636 1.488166 1.553126 4.151511 4.263714 8.019561l19.735917 28.19248c4.889689 6.980208 8.102238 12.791142 9.625837 17.432803 1.535409 4.659377 1.564937 9.572687 0.106297 14.686782-1.476355 5.125905-5.131811 9.743945-10.960461 13.830496-6.366044 4.452687-12.106113 6.519585-17.237924 6.17707-5.137716-0.312987-9.944729-2.214533-14.432849-5.692825-3.041292-2.409412-7.50579-7.783345-13.375779-16.163138l-19.027266-27.176747c-2.988143-4.269619-5.432987-6.73218-7.36406-7.36406-1.913356-0.643691-3.974348-0.188973-6.17707 1.352341l-2.196817 1.541315-1.334625-1.907451 25.168904-17.627681 1.340531 1.90745-2.226344 1.559032c-2.403506 1.683045-3.50782 3.79128-3.259792 6.324706 0.135825 1.730288 1.588558 4.547174 4.305052 8.432941l21.218177 30.30662c1.883829 2.698777 4.263714 5.651488 7.110127 8.846321 2.864129 3.183022 5.521569 5.391649 7.972318 6.572733 2.444844 1.181084 5.137716 1.694856 8.072711 1.517694 2.946805-0.159446 5.899516-1.287382 8.869942-3.371996a22.139423 22.139423 0 0 0 8.131765-10.127797c1.623991-4.080646 1.913356-8.066805 0.844475-11.934856-1.068881-3.868051-4.181038-9.490012-9.348281-16.871787l-19.712296-28.157048c-3.041292-4.340484-5.350311-6.761707-6.897531-7.293195-2.185006-0.714556-4.364106-0.307082-6.566828 1.228328l-2.196817 1.535409z m24.029158-20.27331l1.05707 2.072803c1.836586-0.933057 3.295225-1.464544 4.364106-1.600369 2.196817-0.230311 3.968443-0.177163 5.344406 0.153541 1.358247 0.336609 3.625928 1.316909 6.767613 2.95271l26.792895 52.587774c2.149573 4.228281 3.206644 7.116032 3.118062 8.645537-0.14173 2.515709-1.564937 4.464498-4.275525 5.846366l-2.185005 1.11022 1.051165 2.055086 22.033125-11.226205-1.045259-2.055087-2.232249 1.133841c-2.456655 1.251949-4.682999 1.40549-6.661315 0.442907-1.440923-0.732272-3.324752-3.413333-5.692826-8.054995l-23.733887-46.57015 72.790219 39.607659 1.688951-0.862191-32.468005-63.719493c-2.161384-4.245998-3.200738-7.121938-3.129873-8.669158 0.135825-2.492088 1.541315-4.429066 4.21647-5.793218l2.249966-1.145652-1.057071-2.072802-22.050842 11.238016 1.057071 2.072803 2.202722-1.116125c2.486182-1.269666 4.700715-1.411396 6.661315-0.448812 1.446828 0.702745 3.371995 3.389712 5.740069 8.031373l22.216194 43.605628-67.634787-36.979746-17.184775 8.757739z m135.476263 30.495594l0.708651 2.190911-28.983807 9.419147-0.714556-2.196817 2.403507-0.779515c2.793264-0.903529 4.499931-2.539331 5.125905-4.9015 0.389758-1.517693-0.200784-4.718431-1.771626-9.554971l-16.942653-52.150773c-1.32872-4.080646-2.427128-6.714464-3.271603-7.871926a5.409366 5.409366 0 0 0-2.87594-1.89564 8.698685 8.698685 0 0 0-5.055041 0.070865l-2.403506 0.779516-0.720461-2.214533 28.989711-9.419147 0.720462 2.214533-2.45075 0.797232c-2.757832 0.897624-4.446782 2.521615-5.078662 4.866067-0.419285 1.553126 0.14173 4.736148 1.718477 9.572687l16.948559 52.150773c1.32872 4.086551 2.427128 6.714464 3.271603 7.877832a5.391649 5.391649 0 0 0 2.929089 1.877924c1.736194 0.49015 3.413333 0.484245 5.013702-0.035433l2.438939-0.797232zM438.932315 5.202676l-21.365814 4.931026 0.519678 2.267682c0.437001-0.011811 0.738178-0.011811 0.91534-0.011811 2.456655-0.106298 4.293241 0.277555 5.527474 1.110219 1.246044 0.856286 1.990127 1.866113 2.267682 3.053103 0.42519 1.830681 0.372042 5.285352-0.135825 10.38173l-5.291257 51.619285-28.818455-44.40286c-2.568858-3.944821-4.080646-6.927059-4.553079-8.970335a5.019608 5.019608 0 0 1 0.602353-3.93301c0.744083-1.133841 2.66925-2.279493 5.793218-3.377901l-0.519678-2.267682-28.304682 6.531396 0.519677 2.267682c2.161384-0.277555 3.93301-0.230311 5.3385 0.2185 1.417301 0.419285 2.692872 1.151557 3.820808 2.232249 0.744083 0.679123 2.185006 2.692872 4.370011 6.047151l42.406828 65.29624 1.88383-0.437001 7.925075-75.949619c0.448812-4.42316 1.346436-7.85421 2.681061-10.263622 0.968489-1.623991 2.598385-2.988143 4.936932-4.080646l-0.519677-2.261776z m31.84203 2.858224l2.338546 33.45421 15.590312-1.086598c4.051119-0.28346 6.696747-1.1988 7.954602-2.740115 1.683045-2.043276 2.45075-5.486136 2.326736-10.334487l1.931072-0.135825 2.060992 29.473957-1.931072 0.129919c-0.767705-4.080646-1.452734-6.684937-2.013749-7.824683a7.204614 7.204614 0 0 0-3.330657-3.212549c-1.482261-0.732272-3.708604-1.003922-6.673126-0.797232l-15.590311 1.092503 1.954694 27.914925c0.259839 3.749942 0.56692 6.023529 0.885813 6.80895a3.879862 3.879862 0 0 0 1.600369 1.836586c0.726367 0.419285 2.084614 0.561015 4.027497 0.425191l12.035248-0.844476c3.99797-0.277555 6.903437-0.803137 8.657347-1.612179 1.777532-0.785421 3.419239-2.214533 4.954649-4.287336 1.978316-2.728304 3.9212-6.779423 5.822745-12.141546l2.090519-0.147635-4.61804 21.649273-54.666482 3.820808-0.159446-2.303115 2.515709-0.177162c1.659423-0.112203 3.212549-0.720461 4.647567-1.777532a5.05504 5.05504 0 0 0 2.078708-3.141684c0.301176-1.370058 0.307082-4.110173 0.017716-8.226251l-3.844429-54.997186c-0.377947-5.373933-1.05707-8.639631-2.055086-9.838431-1.364152-1.576747-3.513725-2.261776-6.442815-2.055087l-2.515709 0.177163-0.165352-2.320831 54.666482-3.820807 2.084614 18.483968-2.055087 0.14173c-1.04526-4.405444-2.060992-7.393587-3.070819-8.993957a8.875848 8.875848 0 0 0-4.210565-3.537347c-1.440923-0.519677-3.9212-0.667313-7.44083-0.419285l-19.458362 1.364153zM586.821773 89.597047l-18.944591-1.322814-21.247705-41.249366c-1.777532-0.059054-3.22436-0.118108-4.34639-0.194879a33.495548 33.495548 0 0 1-1.464544-0.124013c-0.513772-0.059054-1.051165-0.118108-1.61218-0.200785l-1.718477 24.590173c-0.372042 5.32669-0.106298 8.663253 0.767704 10.033311 1.210611 1.925167 3.129873 2.982238 5.775502 3.165305l2.787359 0.194879-0.159447 2.303114-30.389296-2.125951 0.153541-2.303114 2.663345 0.183068c2.999954 0.212595 5.226298-0.809043 6.673125-3.041292 0.820854-1.251949 1.411396-4.293241 1.748005-9.106159l3.820807-54.701915c0.372042-5.32669 0.106298-8.663253-0.77361-10.009689-1.228328-1.931073-3.194833-2.988143-5.875894-3.177116l-2.657439-0.188974 0.159446-2.32083 25.836217 1.807059c7.529412 0.525582 13.03917 1.576747 16.517463 3.147589 3.484198 1.553126 6.348328 4.169227 8.604198 7.860116 2.232249 3.708604 3.188927 7.972318 2.846413 12.856101-0.366136 5.19677-2.090519 9.614025-5.214487 13.251765-3.106251 3.614118-7.688858 6.017624-13.759631 7.175086l12.938778 25.31654c2.946805 5.81684 5.574717 9.726228 7.842399 11.728166 2.285398 1.978316 5.344406 3.371995 9.182929 4.151511l-0.15354 2.303114z m-47.349666-47.030772c0.679123 0.047243 1.251949 0.088581 1.730288 0.14173 0.484245 0.053149 0.891719 0.106298 1.192895 0.124013 6.767612 0.472434 11.99391-0.91534 15.667082-4.175132 3.690888-3.253887 5.716448-7.588466 6.094395-12.997832 0.372042-5.285352-0.720461-9.68489-3.259793-13.180899-2.539331-3.496009-6.1003-5.415271-10.671095-5.734164-2.019654-0.14173-4.783391 0.07677-8.291211 0.620069l-2.462561 35.202215z m108.919585-26.391327l-6.602261 28.599954-1.883829-0.437001c0.637785-5.639677 0.55511-10.263622-0.265744-13.871834a19.251672 19.251672 0 0 0-5.001892-9.306944c-2.486182-2.59248-5.285352-4.245998-8.42113-4.972364-3.543253-0.814948-6.767612-0.20669-9.68489 1.842491-2.917278 2.043276-4.742053 4.712526-5.503853 8.001846-0.584637 2.515709-0.377947 5.001892 0.608259 7.399492 1.399585 3.543253 5.492042 8.763645 12.247843 15.672988 5.515663 5.633772 9.212457 9.844337 11.049042 12.613979 1.860208 2.751926 3.088535 5.793218 3.667267 9.088443a24.590173 24.590173 0 0 1-0.259839 9.89158c-1.446828 6.265652-4.736148 11.184867-9.844337 14.781269-5.125905 3.596401-10.883691 4.659377-17.285167 3.177116a28.357832 28.357832 0 0 1-5.551095-1.872018c-1.003922-0.431096-3.029481-1.68895-6.047152-3.720416-3.01767-2.055087-4.97827-3.188927-5.864083-3.395617a2.568858 2.568858 0 0 0-2.238154 0.448812c-0.620069 0.49015-1.281476 1.67714-1.972411 3.531442l-1.877924-0.431096 6.537301-28.351926 1.88383 0.437001c-0.478339 6.141638-0.301176 10.848258 0.519677 14.149389 0.820854 3.277509 2.539331 6.265652 5.173149 8.934902a19.133564 19.133564 0 0 0 9.460484 5.255825c4.257809 0.9803 7.93098 0.42519 11.025421-1.688951a13.995848 13.995848 0 0 0 5.89361-8.657347 15.649366 15.649366 0 0 0 0.029527-6.484152 18.224129 18.224129 0 0 0-3.047197-6.79714c-1.039354-1.535409-4.068835-4.954648-9.082538-10.299054-5.019608-5.320784-8.491995-9.460484-10.4585-12.389573a25.942514 25.942514 0 0 1-3.903483-9.11797 23.314602 23.314602 0 0 1 0.236216-9.856148c1.370058-5.934948 4.452687-10.594325 9.259701-14.001753 4.801107-3.407428 10.151419-4.429066 16.045028-3.070819 3.679077 0.850381 7.340438 2.81098 10.954556 5.923137 1.665329 1.458639 2.905467 2.273587 3.679078 2.45075 0.879908 0.200784 1.68895 0.059054 2.391695-0.437001 0.708651-0.513772 1.452734-1.683045 2.238155-3.496009l1.89564 0.454717z m17.155248 94.350911l-2.45075-0.791326a8.42113 8.42113 0 0 1-4.068835-2.923184 5.350311 5.350311 0 0 1-1.26376-3.242076c-0.005905-1.440923 0.649596-4.210565 1.978316-8.297116l16.942653-52.150773c1.576747-4.83654 2.988143-7.747912 4.240092-8.751834 1.883829-1.517693 4.210565-1.842491 6.968397-0.944867l2.45075 0.797232 0.720461-2.214533-28.983806-9.419147-0.720462 2.214533 2.397601 0.779516c1.600369 0.519677 2.982238 1.482261 4.133795 2.917278a5.40346 5.40346 0 0 1 1.210611 3.218454c0 1.440923-0.649596 4.210565-1.978316 8.297117l-16.948558 52.150772c-1.570842 4.83654-2.976332 7.771534-4.181038 8.769551-1.89564 1.541315-4.240092 1.854302-7.027451 0.950772l-2.397601-0.779515-0.714556 2.196816 28.989712 9.419147 0.702745-2.196817z m88.581315-51.329919l-7.375871 18.507589-1.836586-0.814948c1.080692-3.354279 1.623991-5.846367 1.618085-7.50579 0-2.639723-0.608258-4.848351-1.771626-6.631788-1.181084-1.789343-3.100346-3.277509-5.781407-4.470403l-9.159308-4.074741-26.379516 59.249089c-2.114141 4.759769-2.999954 7.925075-2.675155 9.490012 0.496055 2.137762 2.019654 3.773564 4.541268 4.895594l2.255871 1.003921-0.933056 2.108235-27.554695-12.265559 0.938962-2.108235 2.303114 1.027543c2.751926 1.222422 5.137716 1.098408 7.169181-0.383852 1.246044-0.897624 2.840507-3.531442 4.777486-7.866021l26.379516-59.243183-7.812872-3.478293c-3.029481-1.346436-5.303068-2.03737-6.814856-2.078709-1.990127-0.017716-4.039308 0.749988-6.123922 2.279493-2.096424 1.541315-4.039308 3.99797-5.82865 7.411303l-1.81887-0.809042 8.864037-17.840277 53.01887 23.598062z m52.144867 33.034925l-1.234233 1.972411c1.61218 1.003922 2.675156 1.972411 3.206644 2.911372 0.507866 0.944867 0.755894 1.931073 0.696839 2.976332a6.377855 6.377855 0 0 1-1.009827 3.070819c-1.027543 1.629896-3.460577 3.531442-7.316816 5.757786l-25.688582 14.80489 1.913357-31.06842c0.253933-4.452687 0.791326-7.316817 1.588558-8.580576 0.974394-1.559031 2.285398-2.373979 3.956632-2.415318 1.653518-0.047243 3.165306 0.372042 4.564891 1.240139l1.334625 0.83857 1.234233-1.972411-25.783068-16.115894-1.234233 1.972411c1.116125 0.702745 1.877924 1.40549 2.249965 2.137762 1.411396 2.59248 2.190911 4.56489 2.338547 5.89361 0.14173 1.32872 0.100392 4.370012-0.165352 9.112065l-2.291303 40.481661-10.65338 17.04895c-2.515709 4.021592-4.452687 6.413287-5.805029 7.127843-2.214533 1.181084-4.612134 0.968489-7.169181-0.620069l-2.120046-1.32872-1.222422 1.954695 25.605905 15.997785 1.222423-1.9606-1.9606-1.222422c-2.427128-1.517693-3.738131-3.371995-3.933011-5.557001-0.14173-1.623991 1.163368-4.635755 3.927105-9.058916l11.28526-18.058777 31.611718-18.230035c3.927105-2.332641 6.986113-3.873956 9.147498-4.635755a16.086367 16.086367 0 0 1 6.224313-0.974395c1.996032 0.118108 3.36609 0.419285 4.145606 0.90353l1.151557 0.720461 1.228327-1.97241-21.04692-13.151373z" fill="#0018D2" p-id="4132"></path><path d="M656.452591 833.278524l13.806875-6.738086h1.381868v47.89887c0 3.165306 0.124014 5.149527 0.383853 5.934948 0.271649 0.77361 0.826759 1.370058 1.653517 1.801153 0.844475 0.413379 2.545236 0.655502 5.10819 0.714556v1.541315h-21.342192v-1.541315c2.681061-0.059054 4.411349-0.289366 5.196771-0.696839a3.472388 3.472388 0 0 0 1.629896-1.623991c0.295271-0.690934 0.454717-2.728304 0.454717-6.123922v-30.631418c0-4.121984-0.14173-6.767612-0.413379-7.936886-0.200784-0.897624-0.55511-1.559031-1.074787-1.972411a2.852318 2.852318 0 0 0-1.854302-0.625974c-1.027543 0-2.468466 0.42519-4.305052 1.299192l-0.625975-1.299192z m45.247336 52.32203v-1.541315a22.086275 22.086275 0 0 0 10.121892-2.545237c3.129873-1.623991 6.153449-4.482215 9.064821-8.551049a37.416747 37.416747 0 0 0 6.082584-13.417117c-4.381822 2.816886-8.338454 4.228281-11.881708 4.228282-3.980254 0-7.405398-1.541315-10.245905-4.623945-2.840507-3.08263-4.275525-7.169181-4.275525-12.27737a21.850058 21.850058 0 0 1 4.275525-13.263576c3.425144-4.712526 7.907359-7.062884 13.428927-7.062883 4.653472 0 8.639631 1.925167 11.952572 5.781407 4.07474 4.77158 6.106205 10.653379 6.106206 17.645398a35.095917 35.095917 0 0 1-4.641661 17.633587 39.028927 39.028927 0 0 1-12.921061 13.558846 26.096055 26.096055 0 0 1-14.692688 4.440877h-2.373979v-0.005905z m25.936609-29.149158c0.501961-3.625928 0.761799-6.519585 0.761799-8.698686 0-2.710588-0.472434-5.621961-1.381868-8.763644-0.933057-3.135779-2.232249-5.539285-3.915294-7.210519-1.683045-1.683045-3.596401-2.509804-5.757786-2.509804-2.480277 0-4.653472 1.110219-6.519584 3.336563-1.866113 2.226344-2.79917 5.551096-2.79917 9.950634 0 5.881799 1.240138 10.493933 3.726321 13.806874 1.801153 2.397601 4.045213 3.596401 6.684936 3.596402 1.281476 0 2.81098-0.301176 4.564891-0.909435a14.881661 14.881661 0 0 0 4.635755-2.598385z m23.426805-0.041338c0-6.472341 0.968489-12.035248 2.923184-16.706436 1.954694-4.665283 4.541269-8.155386 7.777439-10.434879 2.515709-1.81887 5.096378-2.728304 7.783345-2.728305 4.334579 0 8.243968 2.226344 11.698639 6.649504 4.322768 5.503852 6.484152 12.932872 6.484152 22.346113 0 6.578639-0.938962 12.165167-2.834602 16.759585-1.89564 4.612134-4.310957 7.954602-7.257762 10.0215-2.9409 2.084614-5.781407 3.112157-8.521523 3.112156-5.397555 0-9.909296-3.183022-13.505698-9.584498-3.035386-5.373933-4.547174-11.858085-4.547174-19.43474z m8.190819 1.045259c0 7.806967 0.956678 14.184821 2.887751 19.109943 1.582653 4.157416 3.968443 6.24203 7.104221 6.24203 1.517693 0 3.076724-0.685029 4.682999-2.02556 1.629896-1.358247 2.858224-3.625928 3.684983-6.797139 1.287382-4.801107 1.925167-11.562814 1.925167-20.291027 0-6.466436-0.667313-11.863991-2.013748-16.186759-0.998016-3.212549-2.297209-5.486136-3.879862-6.820761a6.413287 6.413287 0 0 0-4.1397-1.370058c-1.89564 0-3.584591 0.844475-5.066851 2.545237-2.001938 2.314925-3.36609 5.952664-4.098362 10.919123a101.100807 101.100807 0 0 0-1.086598 14.674971z m43.995386 28.145237v-1.541315a22.086275 22.086275 0 0 0 10.121892-2.545237c3.123968-1.623991 6.153449-4.482215 9.064821-8.551049a37.416747 37.416747 0 0 0 6.082584-13.417117c-4.381822 2.816886-8.338454 4.228281-11.881707 4.228282-3.980254 0-7.411303-1.541315-10.251811-4.623945-2.834602-3.08263-4.269619-7.169181-4.269619-12.27737 0-4.966459 1.429112-9.383714 4.269619-13.263576 3.43105-4.712526 7.913264-7.062884 13.434833-7.062883 4.653472 0 8.639631 1.925167 11.946666 5.781407 4.080646 4.77158 6.112111 10.653379 6.112111 17.645398a35.095917 35.095917 0 0 1-4.641661 17.633587 39.028927 39.028927 0 0 1-12.921061 13.558846 26.096055 26.096055 0 0 1-14.692687 4.440877h-2.37398v-0.005905z m25.942515-29.149158c0.501961-3.625928 0.755894-6.519585 0.755894-8.698686 0-2.710588-0.466528-5.621961-1.381869-8.763644-0.927151-3.135779-2.226344-5.539285-3.909388-7.210519-1.683045-1.683045-3.596401-2.509804-5.757786-2.509804-2.480277 0-4.653472 1.110219-6.519585 3.336563-1.866113 2.226344-2.79917 5.551096-2.799169 9.950634 0 5.881799 1.240138 10.493933 3.72632 13.806874 1.801153 2.397601 4.039308 3.596401 6.679032 3.596402 1.287382 0 2.816886-0.301176 4.570795-0.909435 1.748005-0.614164 3.289319-1.488166 4.635756-2.598385z" fill="#FFFFFF" p-id="4133"></path><path d="M839.697805 601.768304l-2.586575-2.007843-1.293287-2.013748h-2.586574l-3.560969 1.009827-2.261776 1.671234-1.299193 2.338547-0.968489 2.007843-1.293287 2.681061-1.293287 1.671234v2.338547l-1.299193 2.675155v2.681062l-0.637785 2.675155 0.324798 3.011765v5.356217l-0.324798 2.681061-0.643691 2.338547-0.649597 3.011764-0.64369 2.338547-0.96849 2.681061v2.338547l-0.968489 3.011765-0.968489 3.348373-0.974394 2.007844-1.293287 1.671234-0.968489 2.344452-1.61218 1.671234-3.879862 2.007843-4.84835 1.003922-3.230266 1.671234-3.879861 2.681061-3.879862 2.338547-2.586574 2.338546-2.586575 2.013749-0.968489 2.338547-0.324798 2.338546 0.324798 1.671234 2.586575 1.003922 3.873956 0.667313 3.560969-0.336609 1.61218-1.340531 1.936978-1.003922 1.942883-0.667312 2.261776-0.336609 2.586575 1.003921v2.007844l-0.643691 2.013748-0.974395 2.007843-1.293287 3.011765-2.261776 3.348374-1.942883 2.675155-1.293288 3.348374-2.261776 3.011765-1.293287 3.011765-1.299193 3.348373-1.293287 2.007843-1.293287 2.675156-1.618085 1.671234-1.936979 2.344452-0.64369 1.671234v3.342469l0.64369 2.338546 1.936979 1.346436 1.618085 1.340531 2.261776-0.336609 1.618085-2.344452 1.936979-2.338547 1.293287-2.338547 1.61218-2.675155 2.267681-3.348374 2.586575-4.688904 3.560969-5.350312 3.230265-5.356216 0.649596-5.019608 2.261776-5.025514 1.936979-4.021591 1.618085-2.675156 0.643691-3.342468-0.324798-2.007843 1.61218-1.003922 2.586574-0.336609 3.873956-2.344452 2.586574-2.338547h3.873957l2.267681-1.34053 2.261777-2.344452 3.23617-0.667313 3.230266-0.661407 4.529457-1.009827c1.942884-2.338547 1.942884-4.34639 1.942884-4.34639v-12.052964l-2.267682-4.34639-0.968489-4.021592-0.324798-4.015686v-4.688904l-0.324798-2.007844-0.324798-4.021591-0.324798-3.342469-1.299193-2.007843-0.968489 4.34639-1.293287 2.675156-0.968489 2.681061v2.675156l-0.324798 3.684982-1.293288 4.015687-0.643691 2.675155-0.649596 2.344453-0.643691 2.675155-1.936978 2.675156-2.261776 1.67714-2.911373 1.34053-1.61218 1.671234-2.267681 1.003922-0.968489-2.007843 0.324798-2.675156 1.293287-2.681061 0.649596-2.675156 1.293288-3.01767 0.324798-2.007843 0.968489-3.011765 0.643691-3.342468v-6.02353l0.968489-3.011764v-3.348374l0.324798-3.342468 0.324798-2.681061 1.942884-1.340531 2.905467-1.671234 3.879861-1.671234 0.643691-3.348374-0.944867-1.972411z" fill="#0018D2" p-id="4134"></path><path d="M831.288485 703.861223l2.59248 2.675155 2.905467 3.011765 2.267682 3.01767 1.936978 3.342468 1.61218 2.338547 0.974394 1.67714 1.936979 2.007843 1.942883 1.003921h5.173149l4.198754-1.003921 0.974395-2.681061v-5.013703l-2.586575-4.021591-3.23617-3.342469-3.879862-4.688904-4.523553-5.692826-4.523552-4.34639-2.911373-3.684982-3.879861-2.007843-4.523553-0.673218-4.529458 1.346436-1.942883 2.338546 0.330704 3.679078 1.287381 2.013748 1.293287 2.007843 1.936979 1.671234 2.592479 2.344452zM913.001796 621.403829l-2.297209 2.362169-0.767705 4.334579 1.145652 3.938916 3.820807 2.757831 1.907451 3.153495 1.145652 1.966505 1.529504 2.362169 1.913356 1.186989 3.059008 2.356263v2.362168l-1.913356 0.791327-3.059008 0.791326-2.291303 1.576748-2.297209 3.153495-3.442861 2.362168-2.66925 2.757832-1.529504 2.362168-2.297209 2.757832-2.297209 3.549158-1.139746 3.549158 0.377947 2.763737 1.145652 2.757831 1.907451 1.181084 3.059008 2.362169 2.675156 1.181084h5.350311l2.675156-1.576747 2.675155-1.582653 3.436955-2.362169 2.675156-1.966505 4.966459-4.334579 3.059008-2.757831 4.966459-2.362169 2.297209-1.97241 4.966459-3.153495 3.442861-0.389758 6.11211-1.181084 3.436955-1.181084 4.20466-1.576748 3.820807-1.181084h3.814902l2.297209 0.785421 2.297209 1.181084 1.139746 2.763737-1.529504 2.356263-2.291303 1.972411-3.820808 2.362168-4.972364 2.763737-2.291303 2.757832-0.767705 2.362168 4.582607-0.389758 4.204659-2.362168c1.913356-1.181084 3.44286-1.972411 3.442861-1.972411h2.675155l2.675156-0.389757 1.907451-1.972411c1.907451-1.972411 4.20466-2.362168 4.20466-2.362168l4.582607-1.972411 1.907451-3.147589 0.377947-3.153495-1.529505-4.334579-3.059008-2.362169-3.814902-3.938915-5.734163-1.966506-6.879816-0.395663h-5.350311l-6.495963 1.576748-5.734164 1.582652-4.20466 1.966506-5.734164 2.362168-4.204659 2.763737-4.582607 3.147589-3.059008 3.153495-3.436955 3.153495-2.675156 2.757832-2.675156 1.97241-1.907451 1.576748-2.675155-0.791327-1.145652-2.362168 1.913356-2.362169 3.814902-3.147589 4.972365-3.153495 3.814902-3.153495 3.059008-3.147589 3.059008-1.582653 3.44286-3.549158 0.377947-2.356263c0-1.972411-0.377947-3.555063-0.377947-3.555063h-2.675155l-3.059008-0.389758 0.761799-2.362168 2.675156-2.362169 3.059008-1.966505 2.675155-2.368074c1.907451-1.966505 2.297209-3.543253 2.297209-3.543252l2.291304-0.791327 2.675155-1.181084 3.059008-1.181084 1.145652-1.972411 1.907451-1.97241 2.297209-0.389758 2.291303 0.389758 0.377947 2.763737-2.291303 2.757831-4.20466 2.362169-2.297209 2.757831-4.198754 3.555064-3.442861 2.356263-5.344406 2.368073 4.582607 1.576748h3.814902l4.582607-1.576748c1.913356-1.582653 3.820807-3.944821 3.820807-3.944821l2.297209-1.181084 0.377947-2.362168 3.814902-1.181085c1.913356-1.576747 2.297209-3.549158 2.297209-3.549158l2.675155-0.791326h2.675156l3.059008-1.576747 2.297209-1.966506 1.529504-1.97241 1.907451-3.153495V610.791788l-1.529504-3.153495-1.529504-2.757832-3.442861-1.181084-3.436955-1.181084-6.501868 0.791326-5.344406 4.730243-6.495963 6.301084-4.972365 3.938916-0.761799 3.549158-2.675156 0.395663-4.204659-1.18699-1.913357-2.356263-3.059008-1.181084h-2.291303l-2.297209 2.356263-1.529504 3.153495-0.761799 3.944821-0.377947 3.543253-1.913357-0.389758-1.529504-2.757832-1.529504-3.153495-1.907451-2.362168-2.297209-1.576747h-3.059008l-3.755847 1.145651z" fill="#0018D2" p-id="4135"></path><path d="M924.470123 689.971672l0.761799 2.356263H930.966086l1.145652-1.966505 2.291303-1.576747 2.675156-0.791327 0.377947 3.938916-1.145652 2.763737-1.529504 2.356263-0.761799 2.763737 1.907451 1.966505v3.549158l-2.675156 0.791327h-3.436955l-3.436955 0.791326-3.059008 1.576748-2.675156 2.362168-2.297208 1.972411v2.362168l-0.377947 2.362168 1.529504 2.757832 1.913356 1.181084h2.66925s0.767705-0.389758 3.059008-0.791326c2.297209-0.389758 6.112111-1.181084 6.112111-1.181084l4.20466-2.362169 1.907451-1.576747h2.297209c2.675156 0 4.582607-0.389758 4.582606-0.389758l0.767705 3.938916v3.153495l-0.377947 3.147589-2.297209 2.362168-2.675155 1.582653-3.820808 1.576748-2.66925 1.576747-3.059008 0.791327h-3.059008l-1.913357-1.181085-2.291303-1.181084-2.675156-1.97241-1.907451-1.181085-3.059008-0.389757-1.913356 1.576747-0.761799 1.972411 1.139746 2.757831 2.297209 0.389758c1.907451 0.791326 3.820807 1.18699 3.820807 1.18699l2.675156 1.181084 2.291303 1.966505 2.675156 0.395663 3.436955 1.576748 5.350311 0.389757 4.582607 0.395664 2.297209-1.181085 4.198754-1.181084c1.913356-1.972411 3.820807-3.549158 3.820807-3.549158l3.059008-2.763737 0.767705-3.549158v-11.822653l0.7618-2.362168 3.059008-0.785421h2.297208c1.529504 1.966505 4.198754 2.757832 4.198755 2.757831l2.675155-0.791326 2.675156-1.966505 1.529504-3.938916v-2.368074l-1.529504-4.328673-5.734164-2.763737-6.11211-2.362169-4.582607 0.791327-4.582607 1.97241-3.436955 0.389758-3.44286-0.791326-1.907451-2.362169-1.529504-1.966505 0.377947-3.153495 4.582606-1.576747H951.215775l4.198754-1.181084 1.913357-1.576748 2.291303-1.186989 1.913356-3.543253v-4.730242l-2.297208-3.153495-2.675156-1.972411h-9.554971l-3.059008 1.972411-4.20466 1.972411-3.442861 2.757831-3.814902 1.966505-4.582606 1.582653-1.145652 2.362169s-1.907451 3.549158-2.285398 3.153494zM697.371254 605.766275l-4.26962-1.700762h-6.24203l-2.627912 1.358247-2.297209 2.379885-2.303114 2.043275-3.283414 2.037371-1.972411 1.358246-1.97241 1.700762-1.966506 2.379884-3.289319 2.379885-2.622007 2.373979-2.627912 2.722399-1.316909 3.064914-1.311004 3.738131V638.405536l-0.655501 4.423161-0.330704 3.064913v7.476263l-0.330704 4.074741-0.336609 4.765674-0.324798 3.059008v10.547082l-0.330703 2.722399h4.269619l1.641707 0.342515c1.641707 1.358247 2.622007 3.738131 2.622007 3.738131l1.316909 2.043276 1.316909 2.722399h3.938916l0.330703 2.716494-0.649596 2.379884v2.043276l2.297209 2.043276 2.958616 1.021638h16.086366s0.986205 0.342514 3.938916 0c2.958616-0.342514 3.289319-1.021638 3.28932-1.021638l1.641707-1.021638 1.966505-1.021638h4.600323l2.297209 1.021638 2.958615 1.700761 0.330704 2.716494-1.641707 2.722399-1.966505 1.700761-1.641707 2.379885-1.641707 2.379884-2.958616 3.059008-1.316909 1.700762-1.966505 2.379884-3.28932 2.379885-2.95271 0.673218-1.972411-1.021638-1.97241-1.352341-1.635802-1.358247c0-2.043276 0.655502-4.080646 0.655502-4.080646v-2.373979l-0.655502-2.043276-0.655502-1.700761-1.641707-1.700761-1.316909-1.700762-5.255824-0.679123-2.952711 0.679123c-0.986205 1.700761-2.958616 3.744037-2.958616 3.744037l-2.958616 1.358247-1.635801-1.700761-0.330704-2.043276-1.972411-3.059008-0.330703-3.064913-0.330704-3.064914-2.297208-2.043275-3.614118-1.015733-2.297209 1.352342-1.97241 0.342514-0.330704 2.043276v4.080645l-0.655502 2.716494V705.396632l-3.614117-0.342514-3.283415 0.679123-3.283414 0.679123-2.627912 2.043276-2.627912 2.043276-2.952711 2.716493-1.641707 2.043276-0.655502 2.379885-0.655501 2.716493v3.064914l0.986205 2.379885 1.641707 2.03737 2.622007 1.021638 2.303114 0.342514h1.641707l1.972411-1.021638 2.297209-1.015732 1.97241-1.021638 1.972411-0.342514 3.938916-1.358247 1.641707-1.358247 1.641707-2.043276 1.635801-1.700761 1.972411-1.358247h1.972411l2.95271-1.015732 1.972411-2.722399c1.635802-1.021638 3.938916-2.043276 3.938915-2.043276l1.972411-0.679123h1.972411l3.608212 0.342514-1.316909 2.043276-3.608212 0.679123-1.972411 1.358247-1.316909 1.700761v1.694856l3.614118 1.021638 1.966505-0.342515 1.641707-1.700761 1.641707 0.34842 2.622007 1.015732 1.641707 1.358247 0.986205 1.700762c0.330704 1.700761 1.641707 3.401522 1.641708 3.401522l2.297208 2.716494c2.958616 1.021638 1.972411 1.700761 1.972411 1.700761h1.97241l2.952711-0.342515h1.972411l1.97241-0.342514h1.972411l2.297209-1.021638 2.303114-1.021638 1.635801-1.358246 2.627913-1.352342 1.316909-2.043275 2.95271-2.043276 1.641707-2.043276 0.986205-2.373979 0.986206-1.700761 1.635801-2.043276 1.316909-1.700761 0.330704-2.373979 0.986205-1.700762 1.641707-2.043275v-6.460531l-0.330703-2.043276-0.655502-3.064913-1.293287-1.694856-2.622007-2.716494-2.627913-1.700761-3.283414-1.358247h-4.925121l-2.303114-0.679123h-6.566828l-3.28932 0.342514-1.97241 1.021638-1.635802 1.021638-2.303114 1.358247-3.283414 2.043276-1.972411 0.336609-3.283414-0.336609-2.958616-0.679124-0.330703-2.043276 1.316909-2.043275 2.622007-1.358247 1.316908-2.043276 1.316909-1.694856 1.316909-1.700761 1.972411-1.358247 1.966505-1.358246 0.986205-2.379885v-2.722399l-1.316909-1.694856-1.966505-1.021638-2.958616 0.342515-2.958616 0.679123-1.635801 1.021638-1.316909 1.700761h-1.972411l-1.966505-1.700761v-2.379885l1.311004-2.043275 3.944821-1.021638 2.95271-0.679124 3.28932-1.015732 1.316909-1.700761v-2.379885l0.649596-2.379885 1.316909-2.043275 0.986205-2.037371 0.330704-2.722399 1.641707-1.358247 0.330703-4.080645v-2.037371l0.9803-2.043275 1.316909-2.379885 2.958616-1.700761 2.627912-2.716494 0.649597-3.744037-0.324798-3.401522-1.641708-3.395617-1.316908-2.379885-2.303115-1.694856-2.95271 1.015733-4.275525 1.700761-2.297209 1.021638-2.958616 1.021637-2.297208 1.700762-3.614118 1.358247-1.972411 1.352341-1.635801 1.700761-2.303114 0.679124-2.627913-0.679124-1.635801-2.043275-0.330704-3.395618 1.966505-2.379884 1.972411-1.700761 3.289319-1.021638 0.9803-2.037371 3.614118-1.021637h9.519539l2.303114-0.679124 1.316909-2.043275c1.316909-1.700761 2.95271-3.401522 2.95271-3.401523l0.330704-2.716494-0.324798-2.3976z m-27.5606 53.349573l1.399585-2.02556 3.076724 0.578732 0.561015 1.446828 0.28346 2.309019v1.440923l-0.28346 4.045213-1.954694 0.862192h-2.24406l-0.83857-2.314925v-6.342422z m8.952618-6.070773l1.67714-1.151557 0.561015-2.019654 3.915294-0.289366 1.12203 1.440923 0.277554 3.755848s-0.561015 2.019654-2.238154 2.309019c-1.67714 0.289366-2.238155 0.578731-2.238155 0.578732l-1.399584 0.289365-1.399585-1.151557-0.277555-1.440923v-2.32083z m6.997924-18.755617l3.637739-0.289366 0.83857 2.02556-0.277555 2.309019-0.28346 2.30902s-0.561015 1.736194-2.238155 1.446828l-2.238154 0.289366-3.9212 0.578731-1.110219 1.730288-1.12203 1.736194-1.116124 2.30902-0.566921 1.718477-4.198754-0.289365-1.393679-1.151558v-2.88775l1.954694-1.151558 0.28346-2.019654 1.116125-1.736193 3.354279-1.151557 1.683045-1.730289 2.515709-2.59248 3.08263-1.452733zM503.850608 660.68669l2.403506 5.917232 4.015686 1.311003 3.442861 0.041338 2.964521-0.342514 5.40346-1.511788 0.91534-3.206644 3.490104 0.478339-0.543298 2.722399c-0.596448 2.279493-0.584637 2.013749-1.606275 4.612134-3.596401 9.106159 1.387774 13.653333 4.003875 19.452457-1.759815 2.120046-4.812918 4.393633-6.572733 6.519585l-4.305052 3.596401-5.474325 4.618039-3.980254 2.675156-1.340531 3.253887-4.305051 3.596401-3.879862 3.549158-2.710588 2.527521-0.862192 3.643644-0.714556 4.954649c0.082676 0.726367 0.171257 1.452734 0.248028 2.185005 2.38579 4.251903 3.265698 2.828697 8.031373 2.604291 4.28143-0.844475 5.155433-0.655502 8.273494-3.797186 8.781361-8.852226 14.976148-18.607982 24.643322-27.023206l3.035387-3.448766 3.927104-3.112157 4.558985-1.411396a47889981884317870 47889981884317870 0 0 0 5.403461-1.511787l3.915294 0.431095 3.112157 0.962584 3.543252 0.91534c4.895594 6.182976 3.413333 13.411211-6.797139 15.395433-1.287382 0.253933-2.474371 0.874002-3.71451 1.316909l-4.334579-0.377947-5.078662 0.590542-3.383806 0.389758-3.71451 1.316908-1.387774 2.822792-2.131857 3.79128 0.874002 3.879862 1.724383 3.785374 2.639723 0.578732c4.818824 3.271603 5.781407 4.948743 7.251857 10.677001l1.948789 1.984221c2.574764 1.145652 6.927059 2.686967 9.67308 1.978316l2.185006-3.348373 1.186989-4.564891-1.724383-3.785375-1.623991-2.905467-2.149573-3.738131-1.576747-2.474372 2.917278-0.779515 4.181038-0.927151 3.336563-0.832665 1.860207-2.427128c0.608258-0.956678 2.303114-1.340531 2.905467-2.291303 4.446782-5.521569 8.13767-7.488074 8.273495-13.795063-0.437001-9.549066-1.476355-10.09827-8.202629-17.46233l-3.690889-2.226344-5.238108-0.720461-4.807013-0.773611-6.354233 0.738178-1.104313-2.090519c1.062976-0.714556 2.120046-1.429112 3.188927-2.137762l2.710588-2.527521 2.610196-3.401522c0.879908-0.992111 1.771626-1.978316 2.65744-2.964521l2.982237-3.885767 3.354279-4.375917-1.352341-4.26962-3.844429-3.537347-4.541269-2.131857-5.982191 0.253933-6.354233 0.732272-0.832665-3.44286 3.785375-4.42316 3.826713-3.98616c6.123922-4.889689 8.143576-9.141592 10.393541-14.043091l0.986205-6.306989c-0.56692-1.110219-1.12203-2.232249-1.677139-3.348374l-3.14759-4.942837-1.777531-4.222376-2.474372-2.816886-1.623991-2.905467-1.724382-3.791281-2.474372-2.81098-4.06293-1.742099-4.505836 1.848397-2.03737 4.659377-1.293287 3.690888 0.561015 4.801107c0.011811 7.01564 0.496055 15.235986-1.600369 23.208305l-0.708651 4.954648-2.934994 4.322768-2.131857 3.785375c-4.015686 4.275525-7.204614 9.413241-11.344314 13.269481l-4.452687 2.291303-7.15737 1.269666z m39.058454 0.248027l5.04323-0.891718 3.289319-0.377947 2.409412 2.533426-0.620069 5.066851-2.509804 1.848396-1.771627 3.017671-2.515709 1.854302-2.055086 0.549204-1.948789 1.476355-1.759816 0.513772 0.419285-1.606275 0.271649-2.840507 0.20669-3.460577 0.360231-4.724337 1.181084-2.958616z m-15.271419 14.580485l1.139747-2.822791 2.043275-0.336609 1.600369 0.596447 0.171258 3.549158 0.324798 2.775548-1.688951 1.133841-2.686966 0.312987-1.145652-2.055086 0.242122-3.153495z" fill="#0018D2" p-id="4136"></path></svg>